<svg width="60.000000" height="60.000000" viewBox="0 0 60 60" fill="none" xmlns="http://www.w3.org/2000/svg" xmlns:xlink="http://www.w3.org/1999/xlink">
	<desc>
			Created with Pixso.
	</desc>
	<defs>
		<clipPath id="clip36_5218">
			<rect id="icon_data_pie" width="60.000000" height="60.000000" fill="white" fill-opacity="0"/>
		</clipPath>
	</defs>
	<rect id="icon_data_pie" width="60.000000" height="60.000000" fill="#FFFFFF" fill-opacity="0"/>
	<g clip-path="url(#clip36_5218)">
		<path id="Vector" d="M25.62 10.62C26.12 10.62 26.59 10.82 26.95 11.17C27.3 11.52 27.5 12 27.5 12.5L27.5 32.5L47.5 32.5C47.95 32.5 48.39 32.66 48.73 32.96C49.07 33.25 49.29 33.67 49.35 34.12L49.37 34.37C49.37 46.8 39.3 55.62 26.87 55.62C20.9 55.62 15.18 53.25 10.96 49.03C6.74 44.81 4.37 39.09 4.37 33.12C4.37 20.7 13.2 10.62 25.62 10.62ZM33.12 4.37C39.09 4.37 44.81 6.74 49.03 10.96C53.25 15.18 55.62 20.9 55.62 26.87C55.62 27.37 55.42 27.84 55.07 28.2C54.72 28.55 54.24 28.75 53.75 28.75L33.12 28.75C32.62 28.75 32.15 28.55 31.79 28.2C31.44 27.84 31.25 27.37 31.25 26.87L31.25 6.25C31.25 5.75 31.44 5.27 31.79 4.92C32.15 4.57 32.62 4.37 33.12 4.37Z" fill="#185CFF" fill-opacity="1.000000" fill-rule="nonzero"/>
	</g>
</svg>
