<svg width="60.000000" height="60.000000" viewBox="0 0 60 60" fill="none" xmlns="http://www.w3.org/2000/svg" xmlns:xlink="http://www.w3.org/1999/xlink">
	<desc>
			Created with Pixso.
	</desc>
	<defs>
		<clipPath id="clip36_5308">
			<rect id="icon_book_database" width="60.000000" height="60.000000" fill="white" fill-opacity="0"/>
		</clipPath>
	</defs>
	<rect id="icon_book_database" width="60.000000" height="60.000000" fill="#FFFFFF" fill-opacity="0"/>
	<g clip-path="url(#clip36_5308)">
		<path id="Vector" d="M12 12C12 10.4 12.63 8.88 13.75 7.75C14.88 6.63 16.4 6 18 6L42 6C43.59 6 45.11 6.63 46.24 7.75C47.36 8.88 48 10.4 48 12L48 45C48 45.79 47.68 46.55 47.12 47.12C46.55 47.68 45.79 48 45 48L15 48C15 48.79 15.31 49.55 15.87 50.12C16.44 50.68 17.2 51 18 51L46.5 51C46.89 51 47.27 51.15 47.56 51.43C47.84 51.72 48 52.1 48 52.5C48 52.89 47.84 53.27 47.56 53.56C47.27 53.84 46.89 54 46.5 54L18 54C16.4 54 14.88 53.36 13.75 52.24C12.63 51.11 12 49.59 12 48L12 12ZM25.44 19.03C24.37 19.65 24 20.36 24 21C24 21.63 24.37 22.34 25.44 22.96C26.52 23.58 28.12 24 30 24C31.87 24 33.47 23.58 34.55 22.96C35.62 22.34 36 21.63 36 21C36 20.36 35.62 19.65 34.55 19.03C33.47 18.41 31.87 18 30 18C28.12 18 26.52 18.41 25.44 19.03ZM23.94 16.43C22.3 17.39 21 18.93 21 21L21 33C21 34.88 22.35 36.4 23.9 37.36C25.51 38.37 27.67 39 30 39C32.32 39 34.48 38.37 36.09 37.36C37.64 36.4 39 34.88 39 33L39 21C39 18.93 37.69 17.39 36.05 16.43C34.41 15.48 32.26 15 30 15C27.73 15 25.58 15.48 23.94 16.43ZM36 33L36 25.59C34.36 26.52 32.23 27 30 27C27.75 27 25.63 26.52 24 25.59L24 33C24 33.36 24.32 34.09 25.48 34.82C26.58 35.5 28.18 36 30 36C31.81 36 33.41 35.5 34.51 34.82C35.67 34.09 36 33.36 36 33Z" fill="#185CFF" fill-opacity="1.000000" fill-rule="nonzero"/>
	</g>
</svg>
