<svg width="60.000000" height="60.000000" viewBox="0 0 60 60" fill="none" xmlns="http://www.w3.org/2000/svg" xmlns:xlink="http://www.w3.org/1999/xlink">
	<desc>
			Created with Pixso.
	</desc>
	<defs>
		<clipPath id="clip36_5272">
			<rect id="icon_clipboard_data" width="60.000000" height="60.000000" fill="white" fill-opacity="0"/>
		</clipPath>
	</defs>
	<rect id="icon_clipboard_data" width="60.000000" height="60.000000" fill="#FFFFFF" fill-opacity="0"/>
	<g clip-path="url(#clip36_5272)">
		<path id="Vector" d="M25.5 6C24.56 5.99 23.66 6.28 22.9 6.82C22.14 7.36 21.56 8.12 21.25 9L16.5 9C15.3 9 14.16 9.47 13.31 10.31C12.47 11.16 12 12.3 12 13.5L12 49.5C12 50.69 12.47 51.83 13.31 52.68C14.16 53.52 15.3 54 16.5 54L43.5 54C44.69 54 45.83 53.52 46.68 52.68C47.52 51.83 48 50.69 48 49.5L48 13.5C48 12.3 47.52 11.16 46.68 10.31C45.83 9.47 44.69 9 43.5 9L38.74 9C38.43 8.12 37.86 7.36 37.09 6.82C36.33 6.28 35.43 5.99 34.5 6L25.5 6ZM24 10.5C24 10.1 24.15 9.72 24.43 9.43C24.72 9.15 25.1 9 25.5 9L34.5 9C34.89 9 35.27 9.15 35.56 9.43C35.84 9.72 36 10.1 36 10.5C36 10.89 35.84 11.27 35.56 11.56C35.27 11.84 34.89 12 34.5 12L25.5 12C25.1 12 24.72 11.84 24.43 11.56C24.15 11.27 24 10.89 24 10.5ZM39 36L39 43.5C39 43.89 38.84 44.27 38.56 44.56C38.27 44.84 37.89 45 37.5 45C37.1 45 36.72 44.84 36.43 44.56C36.15 44.27 36 43.89 36 43.5L36 36C36 35.6 36.15 35.22 36.43 34.93C36.72 34.65 37.1 34.5 37.5 34.5C37.89 34.5 38.27 34.65 38.56 34.93C38.84 35.22 39 35.6 39 36ZM30 27C30.39 27 30.77 27.15 31.06 27.43C31.34 27.72 31.5 28.1 31.5 28.5L31.5 43.5C31.5 43.89 31.34 44.27 31.06 44.56C30.77 44.84 30.39 45 30 45C29.6 45 29.22 44.84 28.93 44.56C28.65 44.27 28.5 43.89 28.5 43.5L28.5 28.5C28.5 28.1 28.65 27.72 28.93 27.43C29.22 27.15 29.6 27 30 27ZM24 22.5L24 43.5C24 43.89 23.84 44.27 23.56 44.56C23.27 44.84 22.89 45 22.5 45C22.1 45 21.72 44.84 21.43 44.56C21.15 44.27 21 43.89 21 43.5L21 22.5C21 22.1 21.15 21.72 21.43 21.43C21.72 21.15 22.1 21 22.5 21C22.89 21 23.27 21.15 23.56 21.43C23.84 21.72 24 22.1 24 22.5Z" fill="#185CFF" fill-opacity="1.000000" fill-rule="nonzero"/>
	</g>
</svg>
