<svg width="60.000000" height="60.000000" viewBox="0 0 60 60" fill="none" xmlns="http://www.w3.org/2000/svg" xmlns:xlink="http://www.w3.org/1999/xlink">
	<desc>
			Created with Pixso.
	</desc>
	<defs>
		<clipPath id="clip36_5254">
			<rect id="icon_database" width="60.000000" height="60.000000" fill="white" fill-opacity="0"/>
		</clipPath>
	</defs>
	<rect id="icon_database" width="60.000000" height="60.000000" fill="#FFFFFF" fill-opacity="0"/>
	<g clip-path="url(#clip36_5254)">
		<path id="Vector" d="M53.99 12C53.99 16.97 45.94 21 35.99 21C26.05 21 17.99 16.97 17.99 12C17.99 7.02 26.05 3 35.99 3C45.94 3 53.99 7.02 53.99 12ZM53.99 18.36C52.84 19.44 51.47 20.34 50.06 21.04C46.31 22.92 41.33 24 35.99 24C34.12 24 32.3 23.86 30.56 23.61C33.37 25.2 35.73 27.63 35.97 30.94L36 30.91L35.99 37.65L35.99 49.5C35.99 50.02 35.94 50.52 35.84 51L35.99 51C45.94 51 53.99 46.97 53.99 42L53.99 18.36ZM21.92 21.04L22.07 21.12C20.72 20.99 19.35 20.96 17.99 21.04L17.99 18.36C19.14 19.44 20.51 20.34 21.92 21.04ZM26.99 25.26C25.9 24.85 24.78 24.55 23.63 24.35C22.27 24.11 20.88 23.99 19.49 24C12.04 24 5.99 27.36 5.99 31.5C5.99 35.64 12.04 39 19.49 39C26.95 39 32.99 35.64 32.99 31.5C32.99 28.89 30.61 26.61 26.99 25.26ZM30.5 39.41C27.53 41.06 23.63 41.99 19.49 41.99C15.35 41.99 11.46 41.06 8.49 39.42C7.59 38.93 6.76 38.34 5.99 37.66L5.99 49.49C5.99 53.64 12.04 57 19.49 57C26.95 57 32.99 53.64 32.99 49.5L33 37.66C32.23 38.34 31.39 38.93 30.5 39.42L30.5 39.41Z" fill="#185CFF" fill-opacity="1.000000" fill-rule="nonzero"/>
	</g>
</svg>
