<svg width="60.000000" height="60.000000" viewBox="0 0 60 60" fill="none" xmlns="http://www.w3.org/2000/svg" xmlns:xlink="http://www.w3.org/1999/xlink">
	<desc>
			Created with Pixso.
	</desc>
	<defs>
		<clipPath id="clip36_5236">
			<rect id="icon_data_whisker" width="60.000000" height="60.000000" fill="white" fill-opacity="0"/>
		</clipPath>
	</defs>
	<rect id="icon_data_whisker" width="60.000000" height="60.000000" fill="#FFFFFF" fill-opacity="0"/>
	<g clip-path="url(#clip36_5236)">
		<path id="Vector" d="M15 6C14.6 6 14.22 6.15 13.93 6.43C13.65 6.72 13.5 7.1 13.5 7.5C13.5 7.89 13.65 8.27 13.93 8.56C14.22 8.84 14.6 9 15 9L18 9L18 12L16.5 12C15.3 12 14.16 12.47 13.31 13.31C12.47 14.16 12 15.3 12 16.5L12 30L27 30L27 16.5C27 15.3 26.52 14.16 25.68 13.31C24.83 12.47 23.69 12 22.5 12L21 12L21 9L24 9C24.39 9 24.77 8.84 25.06 8.56C25.34 8.27 25.5 7.89 25.5 7.5C25.5 7.1 25.34 6.72 25.06 6.43C24.77 6.15 24.39 6 24 6L15 6ZM36 12C35.6 12 35.22 12.15 34.93 12.43C34.65 12.72 34.5 13.1 34.5 13.5C34.5 13.89 34.65 14.27 34.93 14.56C35.22 14.84 35.6 15 36 15L39 15L39 18L37.5 18C36.3 18 35.16 18.47 34.31 19.31C33.47 20.16 33 21.3 33 22.5L33 27L48 27L48 22.5C48 21.3 47.52 20.16 46.68 19.31C45.83 18.47 44.69 18 43.5 18L42 18L42 15L45 15C45.39 15 45.77 14.84 46.06 14.56C46.34 14.27 46.5 13.89 46.5 13.5C46.5 13.1 46.34 12.72 46.06 12.43C45.77 12.15 45.39 12 45 12L36 12ZM13.5 46.5C13.5 46.89 13.65 47.27 13.93 47.56C14.22 47.84 14.6 48 15 48L24 48C24.39 48 24.77 47.84 25.06 47.56C25.34 47.27 25.5 46.89 25.5 46.5C25.5 46.1 25.34 45.72 25.06 45.43C24.77 45.15 24.39 45 24 45L21 45L21 42L22.5 42C23.69 42 24.83 41.52 25.68 40.68C26.52 39.83 27 38.69 27 37.5L27 33L12 33L12 37.5C12 38.69 12.47 39.83 13.31 40.68C14.16 41.52 15.3 42 16.5 42L18 42L18 45L15 45C14.6 45 14.22 45.15 13.93 45.43C13.65 45.72 13.5 46.1 13.5 46.5ZM36 54C35.6 54 35.22 53.84 34.93 53.56C34.65 53.27 34.5 52.89 34.5 52.5C34.5 52.1 34.65 51.72 34.93 51.43C35.22 51.15 35.6 51 36 51L39 51L39 48L37.5 48C36.3 48 35.16 47.52 34.31 46.68C33.47 45.83 33 44.69 33 43.5L33 30L48 30L48 43.5C48 44.69 47.52 45.83 46.68 46.68C45.83 47.52 44.69 48 43.5 48L42 48L42 51L45 51C45.39 51 45.77 51.15 46.06 51.43C46.34 51.72 46.5 52.1 46.5 52.5C46.5 52.89 46.34 53.27 46.06 53.56C45.77 53.84 45.39 54 45 54L36 54Z" fill="#185CFF" fill-opacity="1.000000" fill-rule="nonzero"/>
	</g>
</svg>
