<svg width="60.000000" height="60.000000" viewBox="0 0 60 60" fill="none" xmlns="http://www.w3.org/2000/svg" xmlns:xlink="http://www.w3.org/1999/xlink">
	<desc>
			Created with Pixso.
	</desc>
	<defs>
		<clipPath id="clip36_5290">
			<rect id="icon_calendar_data" width="60.000000" height="60.000000" fill="white" fill-opacity="0"/>
		</clipPath>
	</defs>
	<rect id="icon_calendar_data" width="60.000000" height="60.000000" fill="#FFFFFF" fill-opacity="0"/>
	<g clip-path="url(#clip36_5290)">
		<path id="Vector" d="M16.5 51L30 51L30 45C30 43.94 30.27 42.91 30.8 42C31.33 41.08 32.08 40.33 33 39.8C33.91 39.27 34.94 39 36 39C37.05 39 38.08 39.27 39 39.8L39 33C39 31.4 39.63 29.88 40.75 28.75C41.88 27.63 43.4 27 45 27C46.59 27 48.11 27.63 49.24 28.75C50.36 29.88 51 31.4 51 33L51 21L9 21L9 43.5C9 45.48 9.79 47.39 11.19 48.8C12.6 50.2 14.51 51 16.5 51ZM43.5 9C45.49 9 47.39 9.79 48.8 11.19C50.21 12.6 51 14.51 51 16.5L51 18L9 18L9 16.5C9 14.51 9.79 12.6 11.19 11.19C12.6 9.79 14.51 9 16.5 9L43.5 9ZM45 30C44.2 30 43.44 30.31 42.87 30.87C42.31 31.44 42 32.2 42 33L42 54C42 54.79 42.31 55.55 42.87 56.12C43.44 56.68 44.2 57 45 57C45.79 57 46.55 56.68 47.12 56.12C47.68 55.55 48 54.79 48 54L48 33C48 32.2 47.68 31.44 47.12 30.87C46.55 30.31 45.79 30 45 30ZM36 42C35.2 42 34.44 42.31 33.87 42.87C33.31 43.44 33 44.2 33 45L33 54C33 54.79 33.31 55.55 33.87 56.12C34.44 56.68 35.2 57 36 57C36.79 57 37.55 56.68 38.12 56.12C38.68 55.55 39 54.79 39 54L39 45C39 44.2 38.68 43.44 38.12 42.87C37.55 42.31 36.79 42 36 42ZM51 39C51 38.2 51.31 37.44 51.87 36.87C52.44 36.31 53.2 36 54 36C54.79 36 55.55 36.31 56.12 36.87C56.68 37.44 57 38.2 57 39L57 54C57 54.79 56.68 55.55 56.12 56.12C55.55 56.68 54.79 57 54 57C53.2 57 52.44 56.68 51.87 56.12C51.31 55.55 51 54.79 51 54L51 39Z" fill="#185CFF" fill-opacity="1.000000" fill-rule="nonzero"/>
	</g>
</svg>
