<svg width="86.000000" height="70.000000" viewBox="0 0 86 70" fill="none" xmlns="http://www.w3.org/2000/svg" xmlns:xlink="http://www.w3.org/1999/xlink">
	<desc>
			Created with Pixso.
	</desc>
	<defs>
		<filter id="filter_220_14870_dd" x="0.388916" y="14.040527" width="85.310913" height="54.812012" filterUnits="userSpaceOnUse" color-interpolation-filters="sRGB">
			<feFlood flood-opacity="0" result="BackgroundImageFix"/>
			<feColorMatrix in="SourceAlpha" type="matrix" values="0 0 0 0 0 0 0 0 0 0 0 0 0 0 0 0 0 0 127 0" result="hardAlpha"/>
			<feOffset dx="0" dy="5.24444"/>
			<feGaussianBlur stdDeviation="2.18519"/>
			<feComposite in2="hardAlpha" operator="out" k2="-1" k3="1"/>
			<feColorMatrix type="matrix" values="0 0 0 0 0.098039 0 0 0 0 0.21176 0 0 0 0 0.48235 0 0 0 0.5 0"/>
			<feBlend mode="normal" in2="BackgroundImageFix" result="effect_dropShadow_1"/>
			<feBlend mode="normal" in="SourceGraphic" in2="effect_dropShadow_1" result="shape"/>
			<feColorMatrix in="SourceAlpha" type="matrix" values="0 0 0 0 0 0 0 0 0 0 0 0 0 0 0 0 0 0 127 0" result="hardAlpha"/>
			<feOffset dx="0" dy="0"/>
			<feGaussianBlur stdDeviation="1.74815"/>
			<feComposite in2="hardAlpha" operator="arithmetic" k2="-1" k3="1"/>
			<feColorMatrix type="matrix" values="0 0 0 0 1 0 0 0 0 1 0 0 0 0 1 0 0 0 0.25 0"/>
			<feBlend mode="normal" in2="shape" result="effect_innerShadow_2"/>
		</filter>
		<filter id="filter_220_14872_dd" x="5.578125" y="13.654297" width="62.748047" height="38.420410" filterUnits="userSpaceOnUse" color-interpolation-filters="sRGB">
			<feFlood flood-opacity="0" result="BackgroundImageFix"/>
			<feBlend mode="normal" in="SourceGraphic" in2="BackgroundImageFix" result="shape"/>
			<feGaussianBlur stdDeviation="0.874074" result="effect_layerBlur_1"/>
		</filter>
		<filter id="filter_220_14878_dd" x="3.761230" y="14.220703" width="61.937988" height="33.176270" filterUnits="userSpaceOnUse" color-interpolation-filters="sRGB">
			<feFlood flood-opacity="0" result="BackgroundImageFix"/>
			<feGaussianBlur in="BackgroundImage" stdDeviation="0.437037"/>
			<feComposite in2="SourceAlpha" operator="in" result="effect_backgroundBlur_1"/>
			<feBlend mode="normal" in="SourceGraphic" in2="effect_backgroundBlur_1" result="shape"/>
		</filter>
		<filter id="filter_220_14884_dd" x="3.761230" y="8.441406" width="61.903564" height="36.454102" filterUnits="userSpaceOnUse" color-interpolation-filters="sRGB">
			<feFlood flood-opacity="0" result="BackgroundImageFix"/>
			<feGaussianBlur in="BackgroundImage" stdDeviation="1.31111"/>
			<feComposite in2="SourceAlpha" operator="in" result="effect_backgroundBlur_1"/>
			<feBlend mode="normal" in="SourceGraphic" in2="effect_backgroundBlur_1" result="shape"/>
			<feColorMatrix in="SourceAlpha" type="matrix" values="0 0 0 0 0 0 0 0 0 0 0 0 0 0 0 0 0 0 127 0" result="hardAlpha"/>
			<feOffset dx="0" dy="0"/>
			<feGaussianBlur stdDeviation="0.655556"/>
			<feComposite in2="hardAlpha" operator="arithmetic" k2="-1" k3="1"/>
			<feColorMatrix type="matrix" values="0 0 0 0 1 0 0 0 0 1 0 0 0 0 1 0 0 0 0.5 0"/>
			<feBlend mode="normal" in2="shape" result="effect_innerShadow_2"/>
		</filter>
		<linearGradient id="paint_linear_220_14869_0" x1="75.705521" y1="23.325470" x2="9.023050" y2="44.797539" gradientUnits="userSpaceOnUse">
			<stop stop-color="#00298D"/>
			<stop offset="0.189268" stop-color="#2349A7"/>
			<stop offset="0.646435" stop-color="#3155AD"/>
			<stop offset="1.000000" stop-color="#032C91"/>
		</linearGradient>
		<radialGradient id="paint_radial_220_14870_0" cx="0.000000" cy="0.000000" r="1.000000" gradientUnits="userSpaceOnUse" gradientTransform="translate(43.0444 36.2019) rotate(90) scale(28.6214 49.5543)">
			<stop offset="0.052083" stop-color="#062E8D"/>
			<stop offset="1.000000" stop-color="#2968FE"/>
		</radialGradient>
		<linearGradient id="paint_linear_220_14870_1" x1="31.529360" y1="14.152979" x2="51.117340" y2="55.846336" gradientUnits="userSpaceOnUse">
			<stop stop-color="#FFFFFF" stop-opacity="0.000000"/>
			<stop offset="1.000000" stop-color="#FFFFFF" stop-opacity="0.431373"/>
		</linearGradient>
		<linearGradient id="paint_linear_220_14879_0" x1="23.171444" y1="26.367599" x2="16.388374" y2="19.757019" gradientUnits="userSpaceOnUse">
			<stop stop-color="#E9F7FF"/>
			<stop offset="0.579246" stop-color="#D7F0FF" stop-opacity="0.568627"/>
			<stop offset="0.956471" stop-color="#BDE7FF" stop-opacity="0.000000"/>
		</linearGradient>
		<linearGradient id="paint_linear_220_14880_0" x1="32.968761" y1="20.595551" x2="26.185734" y2="13.987585" gradientUnits="userSpaceOnUse">
			<stop stop-color="#E9F7FF"/>
			<stop offset="0.579246" stop-color="#D7F0FF" stop-opacity="0.568627"/>
			<stop offset="0.956471" stop-color="#BDE7FF" stop-opacity="0.000000"/>
		</linearGradient>
		<linearGradient id="paint_linear_220_14881_0" x1="13.428822" y1="18.635630" x2="11.385794" y2="12.944660" gradientUnits="userSpaceOnUse">
			<stop stop-color="#E9F7FF"/>
			<stop offset="0.579246" stop-color="#D7F0FF" stop-opacity="0.568627"/>
			<stop offset="0.956471" stop-color="#BDE7FF" stop-opacity="0.000000"/>
		</linearGradient>
		<linearGradient id="paint_linear_220_14882_0" x1="46.035423" y1="43.816544" x2="8.869621" y2="10.954941" gradientUnits="userSpaceOnUse">
			<stop stop-color="#E9F7FF"/>
			<stop offset="0.579246" stop-color="#D7F0FF" stop-opacity="0.568627"/>
			<stop offset="0.956471" stop-color="#BDE7FF" stop-opacity="0.000000"/>
		</linearGradient>
		<linearGradient id="paint_linear_220_14883_0" x1="65.741608" y1="56.742405" x2="28.507645" y2="18.353855" gradientUnits="userSpaceOnUse">
			<stop stop-color="#E9F7FF"/>
			<stop offset="0.579246" stop-color="#D7F0FF" stop-opacity="0.568627"/>
			<stop offset="0.956471" stop-color="#BDE7FF" stop-opacity="0.000000"/>
		</linearGradient>
		<linearGradient id="paint_linear_220_14884_0" x1="3.761227" y1="5.293327" x2="65.664871" y2="44.895447" gradientUnits="userSpaceOnUse">
			<stop offset="0.052955" stop-color="#3FA6E0"/>
			<stop offset="0.461273" stop-color="#79CFFF"/>
			<stop offset="1.000000" stop-color="#79CFFF"/>
		</linearGradient>
		<linearGradient id="paint_linear_220_14884_1" x1="64.045197" y1="50.220081" x2="8.698853" y2="10.955391" gradientUnits="userSpaceOnUse">
			<stop stop-color="#E9F7FF"/>
			<stop offset="0.923987" stop-color="#BDE7FF" stop-opacity="0.000000"/>
		</linearGradient>
	</defs>
	<rect id="icon_bot _isometric_3d" width="84.000000" height="70.000000" fill="#FFFFFF" fill-opacity="0"/>
	<path id="lateral" d="M79.14 36.21C79.14 41.54 75.6 46.87 68.56 50.94C54.47 59.08 31.61 59.08 17.51 50.94C9.99 46.59 6.52 40.81 7.03 35.12C6.98 35.32 6.95 35.53 6.93 35.74C6.25 43.17 8.54 48.27 17.51 53.45C31.61 61.59 54.47 61.59 68.56 53.45C76.64 48.78 79.3 42.87 79.14 36.21Z" fill="url(#paint_linear_220_14869_0)" fill-opacity="1.000000" fill-rule="nonzero"/>
	<g filter="url(#filter_220_14870_dd)">
		<path id="circle" d="M43.04 57.05C62.98 57.05 79.14 47.71 79.14 36.2C79.14 24.68 62.98 15.35 43.04 15.35C23.1 15.35 6.94 24.68 6.94 36.2C6.94 47.71 23.1 57.05 43.04 57.05Z" fill="url(#paint_radial_220_14870_0)" fill-opacity="1.000000" fill-rule="nonzero"/>
	</g>
	<path id="circle" d="M79.14 36.2C79.14 47.71 62.98 57.05 43.04 57.05C23.1 57.05 6.94 47.71 6.94 36.2C6.94 24.68 23.1 15.35 43.04 15.35C62.98 15.35 79.14 24.68 79.14 36.2ZM50.3 56.49Q46.72 56.92 43.04 56.92Q39.36 56.92 35.78 56.49Q32.29 56.08 29.02 55.28Q25.8 54.5 22.9 53.36Q20.03 52.24 17.58 50.83Q15.13 49.41 13.19 47.75Q11.24 46.08 9.88 44.24Q8.51 42.35 7.8 40.36Q7.25 38.8 7.11 37.21Q7.07 36.7 7.07 36.2Q7.07 35.69 7.11 35.18Q7.25 33.59 7.8 32.04Q8.51 30.04 9.88 28.16Q11.24 26.31 13.19 24.64Q15.13 22.98 17.58 21.57Q20.03 20.15 22.9 19.03Q25.8 17.9 29.02 17.11Q32.29 16.31 35.78 15.9Q39.36 15.48 43.04 15.48Q46.72 15.48 50.3 15.9Q53.78 16.31 57.06 17.11Q60.28 17.9 63.18 19.03Q66.05 20.15 68.5 21.57Q70.95 22.98 72.89 24.64Q74.84 26.31 76.2 28.16Q77.57 30.04 78.28 32.04Q78.83 33.59 78.97 35.18Q79.01 35.69 79.01 36.2Q79.01 36.71 78.97 37.21Q78.83 38.8 78.28 40.36Q77.57 42.35 76.2 44.24Q74.84 46.08 72.89 47.75Q70.95 49.41 68.5 50.83Q66.05 52.24 63.18 53.36Q60.28 54.5 57.06 55.28Q53.78 56.08 50.3 56.49Z" fill="url(#paint_linear_220_14870_1)" fill-opacity="1.000000" fill-rule="evenodd"/>
	<g filter="url(#filter_220_14872_dd)">
		<path id="Vector" d="M21.79 23.85C21.05 23.58 20.22 23.45 19.38 23.45C18.53 23.43 17.69 23.56 16.93 23.81C16.61 23.92 16.33 24.07 16.11 24.25C15.93 24.4 15.82 24.59 15.8 24.78C15.8 24.98 15.88 25.17 16.05 25.32C16.15 25.41 16.26 25.49 16.39 25.57C16.55 25.47 16.73 25.38 16.93 25.31C17.69 25.06 18.53 24.93 19.38 24.95C20.22 24.94 21.05 25.08 21.79 25.35C21.95 25.41 22.09 25.48 22.23 25.56C22.41 25.47 22.55 25.35 22.65 25.22C22.76 25.08 22.81 24.93 22.81 24.78C22.77 24.58 22.66 24.39 22.48 24.23C22.3 24.06 22.06 23.93 21.79 23.85Z" fill="#083090" fill-opacity="0.400000" fill-rule="nonzero"/>
		<path id="Vector" d="M31.59 18.19C30.85 17.92 30.02 17.78 29.18 17.79C28.33 17.77 27.49 17.9 26.73 18.15C26.41 18.26 26.13 18.41 25.91 18.59C25.73 18.74 25.62 18.93 25.6 19.12C25.6 19.31 25.68 19.5 25.85 19.66C25.95 19.75 26.06 19.83 26.18 19.9C26.35 19.81 26.53 19.72 26.73 19.65C27.49 19.39 28.33 19.27 29.18 19.29C30.02 19.28 30.85 19.42 31.59 19.69C31.75 19.75 31.89 19.82 32.03 19.9C32.21 19.81 32.35 19.69 32.45 19.56C32.55 19.42 32.61 19.27 32.61 19.12C32.57 18.92 32.46 18.73 32.28 18.57C32.1 18.4 31.86 18.27 31.59 18.19Z" fill="#083090" fill-opacity="0.400000" fill-rule="nonzero"/>
		<path id="Vector" d="M11.39 19.3L13.42 18.1L11.79 17.14C11.62 17.06 11.47 16.94 11.35 16.79C11.24 16.64 11.16 16.46 11.12 16.27C11.12 16.27 11.08 18.44 11.12 18.77C11.15 18.97 11.25 19.16 11.39 19.3Z" fill="#083090" fill-opacity="0.400000" fill-rule="nonzero"/>
		<path id="Vector" d="M43.96 25.76C44.52 25.5 45 25.1 45.36 24.59C45.71 24.09 45.93 23.49 45.99 22.87L45.99 20.37C45.93 21 45.71 21.59 45.36 22.1C45 22.61 44.52 23.01 43.96 23.26L25.42 34.17C23.91 34.99 22.23 35.4 20.52 35.37C18.81 35.4 17.12 34.99 15.61 34.17L9.08 30.37C9.08 30.75 8.2 32.35 8.2 32.35L15.61 36.67C17.12 37.49 18.81 37.9 20.52 37.87C22.23 37.9 23.91 37.49 25.42 36.67L43.96 25.76Z" fill="#083090" fill-opacity="0.400000" fill-rule="nonzero"/>
		<path id="Vector" d="M65.66 29.01C65.68 29.26 65.67 29.5 65.64 29.75C65.16 33.48 61.7 37.2 55.4 40.91C49.65 44.46 43.15 46.53 36.45 46.93C34.81 47.01 33.16 46.87 31.56 46.53C30.1 46.23 28.7 45.7 27.4 44.96L25.42 43.79C24.86 43.54 24.38 43.13 24.02 42.63C23.67 42.12 23.45 41.52 23.39 40.9C23.39 40.9 23.39 42.31 23.39 43.4C23.45 44.02 23.67 44.61 24.02 45.12C24.38 45.63 24.86 46.03 25.42 46.29L27.4 47.45C28.7 48.19 30.1 48.72 31.56 49.02C33.16 49.37 34.81 49.5 36.45 49.43C43.15 49.02 49.65 46.96 55.4 43.41C61.7 39.7 65.16 35.98 65.64 32.24C65.71 31.17 65.72 30.09 65.66 29.01Z" fill="#083090" fill-opacity="0.400000" fill-rule="nonzero"/>
	</g>
	<g filter="url(#filter_220_14878_dd)">
		<path id="Vector" d="M22.03 21.9C21.22 21.46 20.31 21.23 19.38 21.24C18.45 21.21 17.53 21.42 16.69 21.84C16.34 22.02 16.04 22.27 15.79 22.57C15.59 22.82 15.47 23.13 15.45 23.45C15.45 23.77 15.54 24.09 15.73 24.35C15.83 24.5 15.96 24.63 16.09 24.75C16.28 24.59 16.48 24.44 16.69 24.33C17.53 23.9 18.45 23.7 19.38 23.72C20.31 23.72 21.22 23.95 22.03 24.39C22.2 24.49 22.37 24.61 22.52 24.74C22.71 24.59 22.87 24.4 22.98 24.17C23.09 23.95 23.15 23.7 23.16 23.45C23.12 23.12 22.99 22.8 22.79 22.53C22.59 22.26 22.33 22.04 22.03 21.9Z" fill="url(#paint_linear_220_14879_0)" fill-opacity="1.000000" fill-rule="nonzero"/>
		<path id="Vector" d="M31.83 16.13C31.01 15.69 30.1 15.46 29.18 15.47C28.25 15.44 27.32 15.65 26.49 16.07C26.14 16.25 25.83 16.5 25.59 16.8C25.39 17.05 25.27 17.36 25.25 17.68C25.24 18 25.34 18.32 25.53 18.58C25.63 18.73 25.75 18.86 25.89 18.98C26.07 18.82 26.27 18.67 26.49 18.55C27.32 18.13 28.25 17.93 29.18 17.95C30.1 17.94 31.01 18.17 31.83 18.62C32 18.72 32.16 18.84 32.32 18.97C32.51 18.82 32.67 18.62 32.78 18.4C32.89 18.18 32.95 17.93 32.96 17.68C32.91 17.35 32.79 17.03 32.59 16.76C32.39 16.49 32.13 16.27 31.83 16.13Z" fill="url(#paint_linear_220_14880_0)" fill-opacity="1.000000" fill-rule="nonzero"/>
		<path id="Vector" d="M11.39 17.25L13.42 16.05L11.79 15.09C11.62 15 11.47 14.88 11.35 14.73C11.24 14.58 11.15 14.4 11.12 14.22C11.12 14.22 11.08 16.38 11.12 16.71C11.15 16.91 11.25 17.1 11.39 17.25Z" fill="url(#paint_linear_220_14881_0)" fill-opacity="1.000000" fill-rule="nonzero"/>
		<path id="Vector" d="M43.96 23.7C44.51 23.45 45 23.05 45.35 22.54C45.71 22.03 45.93 21.44 45.99 20.81L45.99 18.32C45.93 18.94 45.71 19.54 45.35 20.04C45 20.55 44.51 20.95 43.96 21.21L25.42 32.12C23.91 32.94 22.22 33.35 20.51 33.31C18.81 33.35 17.12 32.94 15.61 32.12L5.79 26.33C5.2 26.01 4.69 25.56 4.28 25.01C3.95 24.56 3.77 24.01 3.76 23.45L3.76 25.94C3.77 26.51 3.95 27.06 4.28 27.51C4.69 28.05 5.2 28.5 5.79 28.83L15.61 34.61C17.12 35.43 18.81 35.84 20.51 35.81C22.22 35.84 23.91 35.43 25.42 34.61L43.96 23.7Z" fill="url(#paint_linear_220_14882_0)" fill-opacity="1.000000" fill-rule="nonzero"/>
		<path id="Vector" d="M65.66 26.96C65.67 27.2 65.66 27.45 65.63 27.69C65.15 31.43 61.69 35.15 55.39 38.86C49.65 42.41 43.15 44.47 36.44 44.88C34.8 44.95 33.16 44.82 31.55 44.47C30.1 44.17 28.69 43.64 27.39 42.9L25.41 41.74C24.86 41.48 24.37 41.08 24.02 40.57C23.66 40.06 23.44 39.47 23.38 38.85C23.38 38.85 23.38 40.26 23.38 41.34C23.44 41.96 23.66 42.56 24.02 43.07C24.37 43.57 24.86 43.98 25.41 44.23L27.39 45.4C28.69 46.14 30.1 46.67 31.55 46.97C33.16 47.31 34.8 47.45 36.44 47.37C43.15 46.97 49.65 44.9 55.39 41.35C61.69 37.64 65.15 33.92 65.63 30.19C65.7 29.11 65.71 28.03 65.66 26.96Z" fill="url(#paint_linear_220_14883_0)" fill-opacity="1.000000" fill-rule="nonzero"/>
	</g>
	<g filter="url(#filter_220_14884_dd)">
		<path id="top" d="M50.5 21.19C51.2 20.79 51.96 20.49 52.75 20.31C54.49 19.89 56.31 19.89 58.06 20.31C58.85 20.49 59.6 20.79 60.31 21.19L62.28 22.35C63.35 22.94 64.26 23.78 64.94 24.8C65.51 25.65 65.75 26.67 65.63 27.68C65.15 31.42 61.69 35.14 55.39 38.85C49.65 42.4 43.14 44.46 36.44 44.87C34.8 44.95 33.16 44.81 31.55 44.47C30.09 44.16 28.69 43.64 27.39 42.9L25.41 41.73C24.85 41.47 24.37 41.07 24.02 40.56C23.66 40.06 23.44 39.46 23.38 38.84C23.44 38.22 23.66 37.62 24.02 37.12C24.38 36.61 24.86 36.21 25.42 35.95L50.5 21.19L50.5 21.19ZM11.58 13.3L11.79 13.17C12.24 12.92 12.75 12.78 13.27 12.77C13.8 12.74 14.33 12.84 14.82 13.05L15.06 13.17L16.69 14.13L24.32 9.63C25.82 8.82 27.51 8.41 29.22 8.44C30.93 8.4 32.62 8.82 34.13 9.63L43.95 15.42C44.51 15.68 44.99 16.08 45.35 16.59C45.71 17.09 45.92 17.69 45.98 18.31C45.93 18.93 45.71 19.53 45.35 20.04C45 20.55 44.51 20.95 43.96 21.21L25.42 32.12C23.91 32.93 22.22 33.35 20.52 33.31C18.81 33.35 17.12 32.93 15.61 32.12L5.79 26.33C5.2 26.01 4.69 25.56 4.28 25.01C3.94 24.56 3.76 24.01 3.76 23.45C3.76 22.88 3.94 22.33 4.28 21.88C4.69 21.34 5.2 20.89 5.79 20.56L13.42 16.06L11.78 15.1C11.61 15.02 11.46 14.9 11.35 14.75C11.23 14.6 11.15 14.42 11.11 14.23C11.1 14.05 11.14 13.87 11.22 13.71C11.31 13.55 11.43 13.41 11.58 13.31L11.78 13.18L11.58 13.32L11.58 13.3ZM16.69 21.84C16.34 22.02 16.04 22.27 15.79 22.57C15.59 22.82 15.47 23.13 15.45 23.45C15.45 23.77 15.54 24.09 15.73 24.35C15.96 24.66 16.25 24.92 16.58 25.1C16.98 25.33 17.42 25.5 17.87 25.6C18.36 25.72 18.87 25.78 19.38 25.77C19.89 25.76 20.4 25.7 20.89 25.57C21.33 25.46 21.75 25.28 22.14 25.04C22.43 24.89 22.68 24.66 22.86 24.39C23.04 24.11 23.14 23.79 23.16 23.45C23.12 23.12 22.99 22.8 22.79 22.52C22.6 22.25 22.33 22.03 22.03 21.89C21.22 21.45 20.31 21.22 19.38 21.23C18.45 21.2 17.53 21.41 16.69 21.84ZM26.49 16.07C26.14 16.24 25.83 16.49 25.59 16.8C25.39 17.05 25.27 17.36 25.25 17.68C25.24 18 25.34 18.32 25.53 18.57C25.75 18.89 26.04 19.15 26.38 19.33C26.78 19.56 27.21 19.73 27.66 19.83C28.66 20.06 29.69 20.05 30.68 19.8C31.13 19.69 31.55 19.51 31.93 19.27C32.23 19.12 32.48 18.89 32.66 18.61C32.84 18.34 32.94 18.01 32.96 17.68C32.91 17.34 32.79 17.02 32.59 16.75C32.39 16.48 32.13 16.26 31.83 16.12C31.01 15.68 30.1 15.45 29.18 15.46C28.25 15.43 27.32 15.65 26.49 16.07L26.49 16.07Z" fill="url(#paint_linear_220_14884_0)" fill-opacity="0.350000" fill-rule="nonzero"/>
	</g>
	<path id="top" d="M13.27 12.77C12.75 12.78 12.24 12.92 11.79 13.17L11.78 13.17L11.78 13.17L11.58 13.3L11.58 13.32L11.59 13.31L11.59 13.31L11.78 13.18L11.59 13.31L11.59 13.31L11.58 13.31C11.58 13.31 11.58 13.32 11.58 13.32C11.57 13.32 11.56 13.32 11.56 13.33C11.42 13.42 11.3 13.56 11.22 13.71C11.14 13.87 11.1 14.05 11.11 14.23C11.15 14.42 11.23 14.6 11.35 14.75C11.46 14.9 11.61 15.02 11.78 15.1L13.29 15.99L13.42 16.06L13.29 16.14L5.79 20.56C5.2 20.89 4.69 21.34 4.28 21.88C3.94 22.33 3.76 22.88 3.76 23.45C3.76 24.01 3.94 24.56 4.28 25.01C4.69 25.56 5.2 26.01 5.79 26.33L15.61 32.12C17.12 32.93 18.81 33.35 20.52 33.31C22.22 33.35 23.91 32.93 25.42 32.12L43.96 21.21C44.51 20.95 45 20.55 45.35 20.04C45.71 19.53 45.93 18.93 45.98 18.31C45.92 17.69 45.71 17.09 45.35 16.59C44.99 16.08 44.51 15.68 43.95 15.42L34.13 9.63C32.62 8.82 30.93 8.4 29.22 8.44C27.51 8.41 25.82 8.82 24.32 9.63L16.69 14.13L15.06 13.17L14.82 13.05C14.33 12.84 13.8 12.74 13.27 12.77ZM14.77 13.16Q14.4 13.01 14.01 12.94Q13.65 12.88 13.27 12.9L13.27 12.9L13.27 12.9Q12.91 12.91 12.57 13Q12.2 13.09 11.86 13.28L11.85 13.28L11.86 13.29L11.86 13.29L11.65 13.42Q11.56 13.48 11.49 13.56Q11.4 13.65 11.34 13.77Q11.29 13.87 11.26 13.98Q11.24 14.1 11.24 14.22Q11.27 14.35 11.32 14.47Q11.38 14.57 11.45 14.67Q11.54 14.78 11.64 14.86Q11.73 14.93 11.84 14.98L11.84 14.99L13.67 16.06L5.86 20.67L5.85 20.68Q5.47 20.89 5.14 21.17Q4.72 21.51 4.39 21.96Q4.28 22.1 4.19 22.26Q4.09 22.45 4.02 22.66Q3.95 22.84 3.92 23.03Q3.89 23.24 3.89 23.45Q3.89 23.66 3.92 23.86Q3.95 24.05 4.02 24.23Q4.08 24.43 4.18 24.6Q4.27 24.78 4.39 24.93Q4.72 25.37 5.12 25.72Q5.46 26 5.85 26.22L5.85 26.22L15.67 32Q16.29 32.34 16.94 32.58Q17.47 32.77 18.02 32.91Q18.65 33.06 19.3 33.13Q19.9 33.2 20.51 33.18L20.52 33.18L20.52 33.18Q21.13 33.2 21.73 33.13Q22.38 33.06 23.01 32.91Q23.56 32.77 24.09 32.58Q24.74 32.34 25.36 32L43.89 21.09L43.9 21.09Q44.28 20.91 44.6 20.66Q44.96 20.36 45.24 19.96Q45.49 19.61 45.64 19.22Q45.81 18.79 45.85 18.31Q45.81 17.84 45.64 17.41Q45.49 17.02 45.24 16.66Q44.96 16.26 44.59 15.97Q44.28 15.71 43.9 15.54L43.89 15.54L34.06 9.75Q33.45 9.42 32.8 9.17Q32.27 8.98 31.72 8.84Q31.08 8.69 30.44 8.62Q29.84 8.56 29.22 8.57L29.22 8.57L29.22 8.57Q28.61 8.56 28 8.62Q27.36 8.69 26.72 8.84Q26.17 8.98 25.64 9.18Q24.99 9.42 24.38 9.75L16.69 14.28L15 13.28L14.77 13.16ZM25.96 16.25Q25.7 16.45 25.49 16.72Q25.32 16.92 25.23 17.15Q25.13 17.39 25.12 17.67L25.12 17.68L25.12 17.68Q25.11 17.96 25.19 18.21Q25.27 18.44 25.42 18.65Q25.62 18.93 25.87 19.14Q26.07 19.31 26.31 19.45Q26.64 19.63 26.99 19.77Q27.3 19.89 27.63 19.96Q28.02 20.05 28.41 20.09Q28.79 20.13 29.18 20.13Q29.55 20.12 29.92 20.08Q30.32 20.03 30.72 19.92Q31.03 19.85 31.32 19.73Q31.67 19.58 32 19.38Q32.22 19.27 32.4 19.11Q32.61 18.93 32.77 18.69Q32.91 18.47 32.99 18.23Q33.07 17.97 33.09 17.69L33.09 17.68L33.09 17.66Q33.05 17.38 32.94 17.12Q32.85 16.89 32.7 16.68Q32.53 16.44 32.3 16.26Q32.11 16.11 31.89 16Q31.54 15.82 31.18 15.68Q30.89 15.57 30.58 15.49Q30.22 15.4 29.86 15.36Q29.52 15.32 29.18 15.33Q28.84 15.32 28.49 15.35Q28.13 15.39 27.77 15.47Q27.45 15.54 27.15 15.65Q26.88 15.74 26.62 15.86L26.62 15.85L26.43 15.95Q26.18 16.08 25.96 16.25ZM26.62 16.01C26.58 16.03 26.53 16.05 26.49 16.07L26.49 16.07L26.49 16.07L26.49 16.07C26.44 16.09 26.4 16.11 26.36 16.14C26.06 16.31 25.8 16.53 25.59 16.8C25.39 17.05 25.27 17.36 25.25 17.68C25.24 18 25.34 18.32 25.53 18.57C25.75 18.89 26.04 19.15 26.38 19.33C26.78 19.56 27.21 19.73 27.66 19.83C28.66 20.06 29.69 20.05 30.68 19.8C31.13 19.69 31.55 19.51 31.93 19.27C32.23 19.12 32.48 18.89 32.66 18.61C32.84 18.34 32.94 18.01 32.96 17.68C32.91 17.34 32.79 17.02 32.59 16.75C32.39 16.48 32.13 16.26 31.83 16.12C31.01 15.68 30.1 15.45 29.18 15.46C28.3 15.44 27.42 15.62 26.62 16.01ZM50.51 21.18C50.51 21.18 50.5 21.19 50.5 21.19L50.5 21.19L50.5 21.19L50.5 21.19L50.48 21.2L25.42 35.95C24.86 36.21 24.38 36.61 24.02 37.12C23.66 37.62 23.44 38.22 23.38 38.84C23.44 39.46 23.66 40.06 24.02 40.56C24.37 41.07 24.85 41.47 25.41 41.73L27.39 42.9C28.69 43.64 30.09 44.16 31.55 44.47C33.16 44.81 34.8 44.95 36.44 44.87C43.14 44.46 49.65 42.4 55.39 38.85C61.69 35.14 65.15 31.42 65.63 27.68C65.75 26.67 65.51 25.65 64.94 24.8C64.26 23.78 63.35 22.94 62.28 22.35L60.31 21.19C59.6 20.79 58.85 20.49 58.06 20.31C56.31 19.89 54.49 19.89 52.75 20.31C51.97 20.49 51.21 20.78 50.51 21.18ZM23.51 38.84Q23.56 39.31 23.72 39.74Q23.87 40.14 24.12 40.49Q24.41 40.89 24.77 41.18Q25.09 41.44 25.47 41.61L25.47 41.61L27.46 42.78Q28.5 43.38 29.61 43.78Q30.57 44.13 31.58 44.34Q32.84 44.61 34.11 44.7Q35.27 44.79 36.43 44.74Q38.79 44.6 41.1 44.18Q43.7 43.72 46.24 42.91Q48.3 42.26 50.27 41.39Q52.88 40.25 55.32 38.74Q64.79 33.16 65.5 27.67Q65.54 27.29 65.52 26.92Q65.5 26.56 65.41 26.21Q65.32 25.81 65.15 25.45Q65.02 25.15 64.83 24.87Q64.54 24.43 64.19 24.04Q63.94 23.76 63.67 23.51Q63.28 23.16 62.86 22.86Q62.55 22.65 62.22 22.47L62.22 22.47L60.25 21.3Q59.68 20.98 59.08 20.76Q58.57 20.56 58.03 20.44Q57.36 20.28 56.67 20.2Q56.04 20.13 55.4 20.13Q54.76 20.13 54.13 20.2Q53.45 20.28 52.78 20.44L52.78 20.44Q52.25 20.56 51.74 20.75Q51.14 20.98 50.56 21.3L50.56 21.3L25.48 36.07L25.47 36.07Q25.09 36.25 24.78 36.5Q24.41 36.79 24.13 37.19Q23.88 37.55 23.73 37.94Q23.56 38.37 23.51 38.84ZM16.16 22.03Q15.9 22.23 15.69 22.49L15.69 22.49Q15.53 22.69 15.44 22.92Q15.34 23.16 15.32 23.44L15.32 23.45L15.32 23.45Q15.32 23.73 15.4 23.98Q15.47 24.21 15.62 24.42Q15.82 24.7 16.07 24.91Q16.28 25.08 16.52 25.22Q16.84 25.4 17.19 25.54Q17.51 25.66 17.84 25.73Q18.22 25.82 18.6 25.86Q18.99 25.9 19.38 25.9Q19.75 25.9 20.11 25.85Q20.52 25.8 20.92 25.7Q21.22 25.62 21.51 25.5Q21.87 25.36 22.2 25.15Q22.42 25.04 22.6 24.88Q22.81 24.7 22.97 24.46Q23.11 24.24 23.19 24Q23.28 23.74 23.29 23.46L23.29 23.45L23.29 23.44Q23.25 23.15 23.15 22.89Q23.05 22.66 22.9 22.45Q22.73 22.21 22.51 22.03Q22.32 21.88 22.09 21.78Q21.75 21.59 21.39 21.45Q21.09 21.34 20.78 21.26Q20.42 21.18 20.06 21.13Q19.73 21.1 19.38 21.1Q19.04 21.09 18.7 21.12Q18.33 21.16 17.97 21.24Q17.66 21.31 17.35 21.41Q16.98 21.54 16.63 21.72Q16.38 21.85 16.16 22.03ZM19.38 21.23C18.45 21.2 17.53 21.41 16.69 21.84C16.34 22.02 16.04 22.27 15.79 22.57C15.59 22.82 15.47 23.13 15.45 23.45C15.45 23.77 15.54 24.09 15.73 24.35C15.96 24.66 16.25 24.92 16.58 25.1C16.98 25.33 17.42 25.5 17.87 25.6C18.36 25.72 18.87 25.78 19.38 25.77C19.89 25.76 20.4 25.7 20.89 25.57C21.33 25.46 21.75 25.28 22.14 25.04C22.43 24.89 22.68 24.66 22.86 24.39C23.04 24.11 23.14 23.79 23.16 23.45C23.12 23.12 22.99 22.8 22.79 22.52C22.6 22.25 22.33 22.03 22.03 21.89C21.22 21.45 20.31 21.22 19.38 21.23ZM11.78 13.18L11.78 13.18L11.78 13.18Z" fill="url(#paint_linear_220_14884_1)" fill-opacity="1.000000" fill-rule="evenodd"/>
</svg>
