<svg width="85.000000" height="73.000000" viewBox="0 0 85 73" fill="none" xmlns="http://www.w3.org/2000/svg" xmlns:xlink="http://www.w3.org/1999/xlink">
	<desc>
			Created with Pixso.
	</desc>
	<defs>
		<filter id="filter_220_14812_dd" x="-0.418457" y="18.086426" width="85.311035" height="54.812012" filterUnits="userSpaceOnUse" color-interpolation-filters="sRGB">
			<feFlood flood-opacity="0" result="BackgroundImageFix"/>
			<feColorMatrix in="SourceAlpha" type="matrix" values="0 0 0 0 0 0 0 0 0 0 0 0 0 0 0 0 0 0 127 0" result="hardAlpha"/>
			<feOffset dx="0" dy="5.24444"/>
			<feGaussianBlur stdDeviation="2.18519"/>
			<feComposite in2="hardAlpha" operator="out" k2="-1" k3="1"/>
			<feColorMatrix type="matrix" values="0 0 0 0 0.098039 0 0 0 0 0.21176 0 0 0 0 0.48235 0 0 0 0.5 0"/>
			<feBlend mode="normal" in2="BackgroundImageFix" result="effect_dropShadow_1"/>
			<feBlend mode="normal" in="SourceGraphic" in2="effect_dropShadow_1" result="shape"/>
			<feColorMatrix in="SourceAlpha" type="matrix" values="0 0 0 0 0 0 0 0 0 0 0 0 0 0 0 0 0 0 127 0" result="hardAlpha"/>
			<feOffset dx="0" dy="0"/>
			<feGaussianBlur stdDeviation="1.74815"/>
			<feComposite in2="hardAlpha" operator="arithmetic" k2="-1" k3="1"/>
			<feColorMatrix type="matrix" values="0 0 0 0 1 0 0 0 0 1 0 0 0 0 1 0 0 0 0.25 0"/>
			<feBlend mode="normal" in2="shape" result="effect_innerShadow_2"/>
		</filter>
		<filter id="filter_220_14814_dd" x="12.182373" y="16.583008" width="60.055664" height="43.242676" filterUnits="userSpaceOnUse" color-interpolation-filters="sRGB">
			<feFlood flood-opacity="0" result="BackgroundImageFix"/>
			<feBlend mode="normal" in="SourceGraphic" in2="BackgroundImageFix" result="shape"/>
			<feGaussianBlur stdDeviation="0.874074" result="effect_layerBlur_1"/>
		</filter>
		<filter id="filter_220_14821_dd" x="14.804688" y="13.776367" width="54.811035" height="41.743652" filterUnits="userSpaceOnUse" color-interpolation-filters="sRGB">
			<feFlood flood-opacity="0" result="BackgroundImageFix"/>
			<feGaussianBlur in="BackgroundImage" stdDeviation="0.437037"/>
			<feComposite in2="SourceAlpha" operator="in" result="effect_backgroundBlur_1"/>
			<feBlend mode="normal" in="SourceGraphic" in2="effect_backgroundBlur_1" result="shape"/>
		</filter>
		<filter id="filter_220_14829_dd" x="14.791016" y="8.288086" width="54.812500" height="45.276855" filterUnits="userSpaceOnUse" color-interpolation-filters="sRGB">
			<feFlood flood-opacity="0" result="BackgroundImageFix"/>
			<feGaussianBlur in="BackgroundImage" stdDeviation="1.31111"/>
			<feComposite in2="SourceAlpha" operator="in" result="effect_backgroundBlur_1"/>
			<feBlend mode="normal" in="SourceGraphic" in2="effect_backgroundBlur_1" result="shape"/>
			<feColorMatrix in="SourceAlpha" type="matrix" values="0 0 0 0 0 0 0 0 0 0 0 0 0 0 0 0 0 0 127 0" result="hardAlpha"/>
			<feOffset dx="0" dy="0"/>
			<feGaussianBlur stdDeviation="0.655556"/>
			<feComposite in2="hardAlpha" operator="arithmetic" k2="-1" k3="1"/>
			<feColorMatrix type="matrix" values="0 0 0 0 1 0 0 0 0 1 0 0 0 0 1 0 0 0 0.5 0"/>
			<feBlend mode="normal" in2="shape" result="effect_innerShadow_2"/>
		</filter>
		<linearGradient id="paint_linear_220_14811_0" x1="74.898392" y1="27.371857" x2="8.215921" y2="48.843925" gradientUnits="userSpaceOnUse">
			<stop stop-color="#00298D"/>
			<stop offset="0.189268" stop-color="#2349A7"/>
			<stop offset="0.646435" stop-color="#3155AD"/>
			<stop offset="1.000000" stop-color="#032C91"/>
		</linearGradient>
		<radialGradient id="paint_radial_220_14812_0" cx="0.000000" cy="0.000000" r="1.000000" gradientUnits="userSpaceOnUse" gradientTransform="translate(42.237 40.2478) rotate(90) scale(28.6214 49.5543)">
			<stop offset="0.052083" stop-color="#062E8D"/>
			<stop offset="1.000000" stop-color="#2968FE"/>
		</radialGradient>
		<linearGradient id="paint_linear_220_14812_1" x1="30.721987" y1="18.198877" x2="50.309967" y2="59.892235" gradientUnits="userSpaceOnUse">
			<stop stop-color="#FFFFFF" stop-opacity="0.000000"/>
			<stop offset="1.000000" stop-color="#FFFFFF" stop-opacity="0.431373"/>
		</linearGradient>
		<linearGradient id="paint_linear_220_14822_0" x1="30.695108" y1="19.008152" x2="24.864840" y2="12.264229" gradientUnits="userSpaceOnUse">
			<stop stop-color="#E9F7FF"/>
			<stop offset="0.579246" stop-color="#D7F0FF" stop-opacity="0.568627"/>
			<stop offset="0.956471" stop-color="#BDE7FF" stop-opacity="0.000000"/>
		</linearGradient>
		<linearGradient id="paint_linear_220_14823_0" x1="42.964241" y1="39.221199" x2="23.134293" y2="6.432142" gradientUnits="userSpaceOnUse">
			<stop stop-color="#E9F7FF"/>
			<stop offset="0.579246" stop-color="#D7F0FF" stop-opacity="0.568627"/>
			<stop offset="0.956471" stop-color="#BDE7FF" stop-opacity="0.000000"/>
		</linearGradient>
		<linearGradient id="paint_linear_220_14824_0" x1="20.429211" y1="47.597088" x2="15.484351" y2="40.756149" gradientUnits="userSpaceOnUse">
			<stop stop-color="#E9F7FF"/>
			<stop offset="0.579246" stop-color="#D7F0FF" stop-opacity="0.568627"/>
			<stop offset="0.956471" stop-color="#BDE7FF" stop-opacity="0.000000"/>
		</linearGradient>
		<linearGradient id="paint_linear_220_14825_0" x1="37.841080" y1="58.923141" x2="27.054823" y2="44.943604" gradientUnits="userSpaceOnUse">
			<stop stop-color="#E9F7FF"/>
			<stop offset="0.579246" stop-color="#D7F0FF" stop-opacity="0.568627"/>
			<stop offset="0.956471" stop-color="#BDE7FF" stop-opacity="0.000000"/>
		</linearGradient>
		<linearGradient id="paint_linear_220_14826_0" x1="69.641388" y1="43.941929" x2="47.205387" y2="15.527861" gradientUnits="userSpaceOnUse">
			<stop stop-color="#E9F7FF"/>
			<stop offset="0.579246" stop-color="#D7F0FF" stop-opacity="0.568627"/>
			<stop offset="0.956471" stop-color="#BDE7FF" stop-opacity="0.000000"/>
		</linearGradient>
		<linearGradient id="paint_linear_220_14827_0" x1="59.037186" y1="47.293930" x2="45.921829" y2="30.420132" gradientUnits="userSpaceOnUse">
			<stop stop-color="#E9F7FF"/>
			<stop offset="0.579246" stop-color="#D7F0FF" stop-opacity="0.568627"/>
			<stop offset="0.956471" stop-color="#BDE7FF" stop-opacity="0.000000"/>
		</linearGradient>
		<linearGradient id="paint_linear_220_14828_0" x1="48.444389" y1="54.872795" x2="30.665810" y2="32.206226" gradientUnits="userSpaceOnUse">
			<stop stop-color="#E9F7FF"/>
			<stop offset="0.579246" stop-color="#D7F0FF" stop-opacity="0.568627"/>
			<stop offset="0.956471" stop-color="#BDE7FF" stop-opacity="0.000000"/>
		</linearGradient>
		<linearGradient id="paint_linear_220_14829_0" x1="14.791016" y1="4.378059" x2="69.603424" y2="53.565159" gradientUnits="userSpaceOnUse">
			<stop offset="0.052955" stop-color="#3FA6E0"/>
			<stop offset="0.461273" stop-color="#79CFFF"/>
			<stop offset="1.000000" stop-color="#79CFFF"/>
		</linearGradient>
		<linearGradient id="paint_linear_220_14829_1" x1="68.169312" y1="60.178497" x2="19.163025" y2="11.410542" gradientUnits="userSpaceOnUse">
			<stop stop-color="#E9F7FF"/>
			<stop offset="0.923987" stop-color="#BDE7FF" stop-opacity="0.000000"/>
		</linearGradient>
	</defs>
	<rect id="icon_trending_lines_isometric_3d" width="84.000000" height="70.000000" transform="translate(1.000000 0.000000)" fill="#FFFFFF" fill-opacity="0"/>
	<path id="lateral" d="M78.33 40.25C78.33 45.59 74.79 50.92 67.76 54.99C53.66 63.13 30.8 63.13 16.7 54.99C9.18 50.64 5.71 44.85 6.22 39.16C6.18 39.37 6.14 39.57 6.12 39.78C5.44 47.21 7.73 52.32 16.7 57.49C30.8 65.64 53.66 65.63 67.76 57.49C75.83 52.83 78.49 46.92 78.33 40.25Z" fill="url(#paint_linear_220_14811_0)" fill-opacity="1.000000" fill-rule="nonzero"/>
	<g filter="url(#filter_220_14812_dd)">
		<path id="circle" d="M42.23 61.09C62.17 61.09 78.33 51.76 78.33 40.24C78.33 28.73 62.17 19.39 42.23 19.39C22.29 19.39 6.13 28.73 6.13 40.24C6.13 51.76 22.29 61.09 42.23 61.09Z" fill="url(#paint_radial_220_14812_0)" fill-opacity="1.000000" fill-rule="nonzero"/>
	</g>
	<path id="circle" d="M78.33 40.24C78.33 51.76 62.17 61.09 42.23 61.09C22.29 61.09 6.13 51.76 6.13 40.24C6.13 28.73 22.29 19.39 42.23 19.39C62.17 19.39 78.33 28.73 78.33 40.24ZM49.49 60.54Q45.92 60.96 42.23 60.96Q38.55 60.96 34.97 60.54Q31.49 60.13 28.21 59.33Q25 58.54 22.1 57.41Q19.22 56.29 16.77 54.87Q14.32 53.46 12.38 51.8Q10.43 50.13 9.07 48.28Q7.7 46.4 6.99 44.4Q6.44 42.85 6.31 41.25Q6.26 40.75 6.26 40.24Q6.26 39.73 6.31 39.23Q6.44 37.64 6.99 36.08Q7.7 34.09 9.07 32.2Q10.43 30.35 12.38 28.68Q14.32 27.03 16.77 25.61Q19.22 24.2 22.1 23.08Q25 21.94 28.21 21.16Q31.49 20.36 34.97 19.95Q38.55 19.52 42.23 19.52Q45.92 19.52 49.49 19.95Q52.98 20.36 56.25 21.16Q59.47 21.94 62.37 23.08Q65.24 24.2 67.69 25.61Q70.14 27.03 72.08 28.68Q74.03 30.35 75.39 32.2Q76.77 34.09 77.47 36.08Q78.03 37.64 78.16 39.23Q78.2 39.73 78.2 40.24Q78.2 40.75 78.16 41.26Q78.03 42.85 77.47 44.4Q76.77 46.4 75.39 48.28Q74.03 50.13 72.08 51.8Q70.14 53.46 67.69 54.87Q65.24 56.29 62.37 57.41Q59.47 58.54 56.25 59.33Q52.98 60.13 49.49 60.54Z" fill="url(#paint_linear_220_14812_1)" fill-opacity="1.000000" fill-rule="evenodd"/>
	<g filter="url(#filter_220_14814_dd)">
		<path id="6" d="M20.4 32.92L33.51 32.92C34.2 32.93 34.88 32.77 35.49 32.44C35.72 32.34 35.91 32.17 36.06 31.97C36.2 31.77 36.29 31.53 36.31 31.28L36.3 29.33C36.3 17.54 36.3 14.21 36.3 29.32C36.27 29.57 36.19 29.81 36.04 30.01C35.9 30.22 35.7 30.38 35.48 30.48C34.86 30.81 34.18 30.97 33.49 30.96L20.4 30.96L20.4 32.92Z" fill="#083090" fill-opacity="0.400000" fill-rule="nonzero"/>
		<path id="5" d="M20.41 43.97C20.42 44.2 20.35 44.42 20.22 44.61C20.06 44.84 19.86 45.03 19.62 45.16C19.33 45.33 19.02 45.46 18.7 45.53C17.97 45.7 17.22 45.7 16.5 45.53C16.17 45.46 15.86 45.33 15.58 45.16C15.34 45.03 15.13 44.84 14.97 44.61C14.87 44.45 14.81 44.27 14.8 44.08L14.8 45.92C14.79 46.15 14.85 46.37 14.99 46.56C15.14 46.79 15.35 46.97 15.59 47.11C15.88 47.28 16.19 47.4 16.51 47.48C17.23 47.65 17.99 47.65 18.71 47.48C19.03 47.4 19.34 47.28 19.63 47.11C19.87 46.97 20.07 46.79 20.23 46.56C20.36 46.37 20.43 46.15 20.42 45.92L20.41 43.97Z" fill="#083090" fill-opacity="0.400000" fill-rule="nonzero"/>
		<path id="4" d="M36.99 54.76C36.37 55.08 35.69 55.24 35 55.24C34.31 55.24 33.63 55.08 33.01 54.76L26.41 50.91C26.19 50.81 25.97 50.65 25.82 50.45C25.68 50.24 25.59 50.01 25.57 49.76C25.57 49.76 25.58 51.28 25.58 51.71C25.6 51.96 25.69 52.2 25.84 52.4C25.98 52.6 26.18 52.76 26.4 52.86C26.4 52.86 32.41 56.41 33.03 56.72C33.64 57.03 34.32 57.2 35.01 57.2C35.7 57.2 36.38 57.03 37 56.72C37.23 56.62 37.42 56.46 37.57 56.25C37.71 56.05 37.8 55.81 37.82 55.56C37.82 55.13 37.81 54.52 37.81 53.61C37.79 53.86 37.7 54.1 37.55 54.3C37.41 54.5 37.21 54.66 36.99 54.76Z" fill="#083090" fill-opacity="0.400000" fill-rule="nonzero"/>
		<path id="3" d="M69.6 35.11C69.58 35.36 69.49 35.6 69.34 35.8C69.2 36 69 36.16 68.78 36.27C68.16 36.58 67.48 36.75 66.79 36.75C66.1 36.75 65.42 36.58 64.8 36.27L44.96 24.69C44.74 24.59 44.53 24.44 44.38 24.24C44.24 24.04 44.14 23.82 44.12 23.58C44.12 23.92 44.13 25.14 44.13 25.51C44.15 25.76 44.24 26 44.38 26.2C44.53 26.4 44.95 26.66 44.95 26.66L64.81 38.22C65.43 38.54 66.11 38.7 66.8 38.7C67.49 38.7 68.17 38.54 68.79 38.22C69.01 38.12 69.21 37.96 69.35 37.76C69.5 37.56 69.59 37.32 69.61 37.07C69.61 36.63 69.6 35.11 69.6 35.11Z" fill="#083090" fill-opacity="0.400000" fill-rule="nonzero"/>
		<path id="2" d="M58.17 42.42C57.55 42.73 56.89 42.91 56.2 42.91C55.5 42.91 54.82 42.75 54.21 42.43L44.94 37.01C44.72 36.91 44.51 36.78 44.37 36.57C44.23 36.37 44.14 36.13 44.11 35.88C44.11 35.88 44.13 37.4 44.13 37.83C44.15 38.08 44.24 38.32 44.38 38.52C44.53 38.73 44.95 38.99 44.95 38.99C44.95 38.99 53.61 44.07 54.22 44.39C54.84 44.7 55.52 44.86 56.21 44.86C56.9 44.86 57.58 44.7 58.19 44.39C58.42 44.28 58.62 44.12 58.76 43.92C58.9 43.72 58.99 43.48 59.02 43.23C59.02 42.8 59 41.28 59 41.28C58.98 41.53 58.89 41.77 58.75 41.97C58.6 42.17 58.4 42.32 58.17 42.42Z" fill="#083090" fill-opacity="0.400000" fill-rule="nonzero"/>
		<path id="1" d="M47.58 48.6C46.97 48.91 46.29 49.08 45.6 49.08C44.91 49.08 44.23 48.91 43.61 48.6L29.06 40.1C28.84 40 28.62 39.86 28.47 39.66C28.33 39.45 28.24 39.22 28.22 38.97C28.22 38.97 28.23 40.49 28.23 40.92C28.25 41.17 28.34 41.41 28.49 41.61C28.63 41.81 28.83 41.97 29.05 42.07C29.05 42.07 43.01 50.24 43.62 50.55C44.24 50.87 44.92 51.03 45.61 51.03C46.3 51.03 46.98 50.87 47.6 50.55C47.82 50.45 48.02 50.29 48.16 50.09C48.31 49.89 48.4 49.65 48.42 49.4C48.42 48.96 48.41 47.45 48.41 47.45C48.38 47.69 48.29 47.93 48.15 48.13C48 48.34 47.81 48.5 47.58 48.6Z" fill="#083090" fill-opacity="0.400000" fill-rule="nonzero"/>
	</g>
	<g filter="url(#filter_220_14821_dd)">
		<path id="7" d="M24.89 16.88C25.51 17.2 26.19 17.36 26.88 17.36C27.57 17.36 28.25 17.2 28.87 16.88L30.68 15.83L30.68 13.86L28.86 14.89C28.24 15.21 27.56 15.38 26.87 15.38C26.18 15.38 25.5 15.22 24.89 14.91C24.66 14.8 24.48 14.65 24.34 14.45C24.19 14.25 24.08 14.02 24.06 13.77C24.06 13.77 24.07 15.29 24.07 15.72C24.09 15.97 24.18 16.21 24.33 16.41C24.47 16.62 24.67 16.78 24.89 16.88Z" fill="url(#paint_linear_220_14822_0)" fill-opacity="1.000000" fill-rule="nonzero"/>
		<path id="6" d="M20.4 31.23L33.51 31.23C34.2 31.25 34.88 31.08 35.49 30.75C35.72 30.65 35.91 30.49 36.06 30.29C36.2 30.09 36.29 29.85 36.31 29.6L36.3 27.65L36.3 15.81L38.14 16.89C38.75 17.2 39.44 17.37 40.13 17.37C40.82 17.37 41.5 17.2 42.11 16.89C42.34 16.78 42.53 16.62 42.68 16.42C42.82 16.22 42.91 15.98 42.94 15.73C42.94 15.3 42.92 13.78 42.92 13.78C42.9 14.03 42.79 14.25 42.65 14.45C42.5 14.66 42.3 14.81 42.08 14.92C41.46 15.23 40.8 15.38 40.11 15.38C39.42 15.38 38.75 15.23 38.13 14.91L36.3 13.85L36.3 27.64C36.27 27.89 36.19 28.13 36.04 28.33C35.9 28.53 35.7 28.69 35.48 28.8C34.86 29.12 34.18 29.29 33.49 29.28L20.4 29.28L20.4 31.23Z" fill="url(#paint_linear_220_14823_0)" fill-opacity="1.000000" fill-rule="nonzero"/>
		<path id="5" d="M20.41 42.29C20.42 42.51 20.35 42.74 20.22 42.93C20.06 43.15 19.86 43.34 19.62 43.48C19.33 43.65 19.02 43.77 18.7 43.85C17.97 44.02 17.22 44.02 16.5 43.85C16.17 43.77 15.86 43.65 15.58 43.48C15.34 43.34 15.13 43.15 14.97 42.93C14.87 42.77 14.81 42.59 14.8 42.4L14.8 44.23C14.79 44.46 14.85 44.69 14.99 44.88C15.14 45.1 15.35 45.29 15.59 45.43C15.88 45.6 16.19 45.72 16.51 45.8C17.23 45.97 17.99 45.97 18.71 45.8C19.03 45.72 19.34 45.6 19.63 45.43C19.87 45.29 20.07 45.1 20.23 44.88C20.36 44.69 20.43 44.46 20.42 44.23L20.41 42.29Z" fill="url(#paint_linear_220_14824_0)" fill-opacity="1.000000" fill-rule="nonzero"/>
		<path id="4" d="M36.99 53.08C36.37 53.4 35.69 53.56 35 53.56C34.31 53.56 33.63 53.4 33.01 53.08L26.41 49.23C26.19 49.13 25.97 48.97 25.82 48.76C25.68 48.56 25.59 48.32 25.57 48.07C25.57 48.07 25.58 49.59 25.58 50.02C25.6 50.27 25.69 50.51 25.84 50.71C25.98 50.92 26.18 51.08 26.4 51.18C26.4 51.18 32.41 54.72 33.03 55.04C33.64 55.35 34.32 55.52 35.01 55.52C35.7 55.52 36.38 55.35 37 55.04C37.23 54.93 37.42 54.77 37.57 54.57C37.71 54.37 37.8 54.13 37.82 53.88C37.82 53.45 37.81 52.84 37.81 51.93C37.79 52.18 37.7 52.41 37.55 52.62C37.41 52.82 37.21 52.98 36.99 53.08Z" fill="url(#paint_linear_220_14825_0)" fill-opacity="1.000000" fill-rule="nonzero"/>
		<path id="3" d="M69.6 33.43C69.58 33.68 69.49 33.91 69.34 34.12C69.2 34.32 69 34.48 68.78 34.58C68.16 34.9 67.48 35.06 66.79 35.06C66.1 35.06 65.42 34.9 64.8 34.58L44.96 23.01C44.74 22.91 44.53 22.76 44.38 22.56C44.24 22.36 44.14 22.14 44.12 21.89C44.12 22.24 44.13 23.46 44.13 23.83C44.15 24.07 44.24 24.31 44.38 24.52C44.53 24.72 44.95 24.98 44.95 24.98L64.81 36.54C65.43 36.86 66.11 37.02 66.8 37.02C67.49 37.02 68.17 36.86 68.79 36.54C69.01 36.44 69.21 36.28 69.35 36.07C69.5 35.87 69.59 35.63 69.61 35.38C69.61 34.95 69.6 33.43 69.6 33.43Z" fill="url(#paint_linear_220_14826_0)" fill-opacity="1.000000" fill-rule="nonzero"/>
		<path id="2" d="M58.17 40.73C57.55 41.05 56.89 41.23 56.2 41.23C55.5 41.23 54.82 41.07 54.21 40.75L44.94 35.33C44.72 35.23 44.51 35.09 44.37 34.89C44.23 34.69 44.14 34.45 44.11 34.2C44.11 34.2 44.13 35.72 44.13 36.15C44.15 36.4 44.24 36.64 44.38 36.84C44.53 37.04 44.95 37.31 44.95 37.31C44.95 37.31 53.61 42.39 54.22 42.7C54.84 43.02 55.52 43.18 56.21 43.18C56.9 43.18 57.58 43.02 58.19 42.7C58.42 42.6 58.62 42.44 58.76 42.24C58.9 42.03 58.99 41.79 59.02 41.55C59.02 41.11 59 39.59 59 39.59C58.98 39.84 58.89 40.08 58.75 40.28C58.6 40.49 58.4 40.63 58.17 40.73Z" fill="url(#paint_linear_220_14827_0)" fill-opacity="1.000000" fill-rule="nonzero"/>
		<path id="1" d="M47.58 46.92C46.97 47.23 46.29 47.39 45.6 47.39C44.91 47.39 44.23 47.23 43.61 46.92L29.06 38.42C28.84 38.32 28.62 38.18 28.47 37.97C28.33 37.77 28.24 37.53 28.22 37.28C28.22 37.28 28.23 38.8 28.23 39.24C28.25 39.48 28.34 39.72 28.49 39.92C28.63 40.13 28.83 40.29 29.05 40.39C29.05 40.39 43.01 48.56 43.62 48.87C44.24 49.19 44.92 49.35 45.61 49.35C46.3 49.35 46.98 49.19 47.6 48.87C47.82 48.77 48.02 48.61 48.16 48.4C48.31 48.2 48.4 47.96 48.42 47.71C48.42 47.28 48.41 45.76 48.41 45.76C48.38 46.01 48.29 46.25 48.15 46.45C48 46.65 47.81 46.81 47.58 46.92Z" fill="url(#paint_linear_220_14828_0)" fill-opacity="1.000000" fill-rule="nonzero"/>
	</g>
	<g filter="url(#filter_220_14829_dd)">
		<path id="top" d="M24.88 14.93C24.65 14.82 24.46 14.66 24.32 14.46C24.17 14.26 24.08 14.02 24.06 13.77C24.08 13.52 24.17 13.28 24.32 13.08C24.46 12.88 24.66 12.72 24.88 12.61L31.5 8.76C32.12 8.45 32.8 8.28 33.49 8.28C34.18 8.28 34.86 8.45 35.48 8.76L42.1 12.61C42.33 12.72 42.52 12.88 42.67 13.08C42.81 13.28 42.9 13.52 42.92 13.77C42.9 14.02 42.81 14.26 42.67 14.46C42.52 14.66 42.33 14.82 42.1 14.93C41.48 15.24 40.8 15.41 40.11 15.41C39.42 15.41 38.74 15.24 38.13 14.93L36.3 13.86L36.3 27.64C36.28 27.89 36.19 28.13 36.04 28.33C35.9 28.53 35.7 28.69 35.48 28.8C34.86 29.12 34.18 29.29 33.49 29.28L20.4 29.28L20.4 42.28C20.41 42.51 20.35 42.74 20.22 42.93C20.06 43.15 19.86 43.34 19.62 43.48C19.33 43.65 19.02 43.77 18.69 43.85C17.97 44.02 17.22 44.02 16.5 43.85C16.17 43.77 15.86 43.65 15.57 43.48C15.34 43.34 15.13 43.15 14.97 42.93C14.84 42.74 14.78 42.51 14.79 42.28L14.79 27.64C14.81 27.39 14.9 27.16 15.04 26.95C15.19 26.75 15.38 26.59 15.61 26.49C16.22 26.16 16.9 26 17.6 26.01L30.68 26.01L30.68 13.86L28.85 14.93C28.24 15.24 27.56 15.41 26.87 15.41C26.18 15.41 25.5 15.24 24.88 14.93ZM26.39 46.92C27.01 46.6 27.69 46.44 28.38 46.44C29.07 46.44 29.75 46.6 30.36 46.92L36.99 50.77C37.23 50.85 37.43 51.01 37.58 51.21C37.73 51.42 37.81 51.67 37.81 51.93C37.81 52.18 37.73 52.43 37.58 52.64C37.43 52.84 37.23 53 36.99 53.08C36.37 53.4 35.69 53.56 35 53.56C34.31 53.56 33.63 53.4 33.01 53.08L26.38 49.23C26.38 49.23 25.94 48.99 25.79 48.78C25.65 48.58 25.57 48.33 25.57 48.07C25.57 47.82 25.65 47.57 25.79 47.36C25.94 47.15 26.15 47 26.39 46.92ZM33.01 36.12C32.4 35.81 31.72 35.65 31.03 35.65C30.34 35.65 29.66 35.81 29.04 36.12C28.8 36.21 28.59 36.36 28.44 36.57C28.3 36.78 28.22 37.03 28.22 37.28C28.22 37.54 28.3 37.79 28.44 37.99C28.59 38.2 29.04 38.44 29.04 38.44L43.61 46.91C44.23 47.23 44.91 47.39 45.6 47.39C46.29 47.39 46.97 47.23 47.58 46.91C47.82 46.83 48.03 46.68 48.18 46.47C48.33 46.26 48.41 46.01 48.41 45.76C48.41 45.5 48.33 45.25 48.18 45.05C48.03 44.84 47.82 44.68 47.58 44.6L33.01 36.12ZM44.93 33.04C45.54 32.73 46.23 32.56 46.92 32.56C47.61 32.56 48.29 32.73 48.91 33.04L58.18 38.44C58.18 38.44 58.63 38.68 58.78 38.88C58.92 39.09 59 39.34 59 39.59C59 39.85 58.92 40.1 58.78 40.3C58.63 40.51 58.18 40.75 58.18 40.75C57.56 41.06 56.88 41.23 56.19 41.23C55.5 41.23 54.82 41.06 54.21 40.75L44.93 35.35C44.93 35.35 44.49 35.12 44.34 34.91C44.19 34.7 44.11 34.45 44.11 34.2C44.11 33.94 44.19 33.69 44.34 33.49C44.49 33.28 44.74 33.14 44.93 33.04ZM48.91 20.71C48.29 20.4 47.61 20.23 46.92 20.23C46.23 20.23 45.55 20.4 44.93 20.71C44.71 20.81 44.51 20.98 44.37 21.18C44.22 21.38 44.14 21.62 44.11 21.87C44.14 22.12 44.22 22.35 44.37 22.56C44.51 22.76 44.93 23.02 44.93 23.02L64.8 34.59C65.42 34.9 66.1 35.06 66.79 35.06C67.48 35.06 68.16 34.9 68.78 34.59C69.01 34.47 69.22 34.35 69.37 34.14C69.52 33.93 69.6 33.68 69.6 33.43C69.6 33.17 69.52 32.93 69.37 32.72C69.22 32.51 68.99 32.37 68.78 32.27L48.91 20.71Z" fill="url(#paint_linear_220_14829_0)" fill-opacity="0.350000" fill-rule="nonzero"/>
	</g>
	<path id="top" d="M24.88 12.61C24.66 12.72 24.46 12.88 24.32 13.08C24.17 13.28 24.08 13.52 24.06 13.77C24.08 14.02 24.17 14.26 24.32 14.46C24.46 14.66 24.65 14.82 24.88 14.93C25.5 15.24 26.18 15.41 26.87 15.41C27.56 15.41 28.24 15.24 28.85 14.93L30.55 13.94L30.68 13.86L30.68 25.88L30.68 26.01L17.6 26.01C16.9 26 16.22 26.16 15.61 26.49C15.38 26.59 15.19 26.75 15.04 26.95C14.9 27.16 14.81 27.39 14.79 27.64L14.79 42.28C14.78 42.51 14.84 42.74 14.97 42.93C15.13 43.15 15.34 43.34 15.57 43.48C15.86 43.65 16.17 43.77 16.5 43.85C17.22 44.02 17.97 44.02 18.69 43.85C19.02 43.77 19.33 43.65 19.62 43.48C19.86 43.34 20.06 43.15 20.22 42.93C20.35 42.74 20.41 42.51 20.4 42.28L20.4 29.28L20.53 29.28L33.49 29.28C34.18 29.29 34.86 29.12 35.48 28.8C35.7 28.69 35.9 28.53 36.04 28.33C36.19 28.13 36.28 27.89 36.3 27.64L36.3 13.86L36.43 13.94L38.13 14.93C38.74 15.24 39.42 15.41 40.11 15.41C40.8 15.41 41.48 15.24 42.1 14.93C42.33 14.82 42.52 14.66 42.67 14.46C42.81 14.26 42.9 14.02 42.92 13.77C42.9 13.52 42.81 13.28 42.67 13.08C42.52 12.88 42.33 12.72 42.1 12.61L35.48 8.76C34.86 8.45 34.18 8.28 33.49 8.28C32.8 8.28 32.12 8.45 31.5 8.76L24.88 12.61ZM31.57 8.88L24.94 12.73L24.94 12.73Q24.78 12.8 24.66 12.9Q24.53 13.01 24.42 13.16Q24.32 13.3 24.27 13.45Q24.21 13.6 24.19 13.77Q24.21 13.94 24.27 14.09Q24.32 14.25 24.42 14.38Q24.53 14.53 24.66 14.64Q24.78 14.74 24.94 14.81L24.94 14.81L24.94 14.81Q25.41 15.05 25.9 15.16Q26.37 15.27 26.87 15.27Q27.37 15.27 27.84 15.16Q28.33 15.05 28.79 14.81L30.81 13.64L30.81 26.14L17.59 26.14Q17.09 26.13 16.62 26.24Q16.13 26.36 15.67 26.6L15.67 26.61L15.66 26.61Q15.51 26.68 15.39 26.78Q15.25 26.89 15.15 27.03Q15.05 27.17 14.99 27.32Q14.94 27.48 14.92 27.65L14.92 42.29L14.92 42.29Q14.91 42.45 14.95 42.59Q15 42.73 15.08 42.85Q15.19 43.01 15.33 43.14Q15.47 43.27 15.64 43.36Q15.85 43.49 16.07 43.57Q16.29 43.66 16.53 43.72Q17.06 43.85 17.59 43.85Q18.13 43.85 18.66 43.72Q18.88 43.67 19.08 43.59Q19.32 43.5 19.55 43.36Q19.71 43.27 19.85 43.15Q20 43.02 20.11 42.85Q20.2 42.73 20.24 42.59Q20.28 42.45 20.27 42.29L20.27 42.29L20.27 29.14L33.49 29.14Q34 29.15 34.47 29.04Q34.96 28.93 35.41 28.68L35.42 28.68L35.42 28.68Q35.57 28.61 35.7 28.51Q35.83 28.4 35.93 28.25Q36.03 28.12 36.09 27.96Q36.15 27.81 36.17 27.63L36.17 13.64L38.19 14.81Q38.65 15.05 39.14 15.16Q39.61 15.27 40.11 15.27Q40.62 15.27 41.09 15.16Q41.58 15.05 42.04 14.81L42.04 14.81L42.05 14.81Q42.2 14.74 42.32 14.64Q42.46 14.53 42.56 14.38Q42.66 14.25 42.72 14.09Q42.77 13.94 42.79 13.77Q42.77 13.6 42.72 13.45Q42.66 13.29 42.56 13.16Q42.46 13.01 42.32 12.9Q42.2 12.8 42.05 12.73L42.04 12.73L35.41 8.88Q34.96 8.64 34.47 8.53Q33.99 8.41 33.49 8.41Q32.99 8.41 32.51 8.53Q32.03 8.64 31.57 8.88ZM68.78 32.27L48.91 20.71C48.29 20.4 47.61 20.23 46.92 20.23C46.23 20.23 45.55 20.4 44.93 20.71C44.71 20.81 44.51 20.98 44.37 21.18C44.22 21.38 44.14 21.62 44.11 21.87C44.14 22.12 44.22 22.35 44.37 22.56C44.51 22.76 44.93 23.02 44.93 23.02L64.8 34.59C65.42 34.9 66.1 35.06 66.79 35.06C67.48 35.06 68.16 34.9 68.78 34.59C69.01 34.47 69.22 34.35 69.37 34.14C69.52 33.93 69.6 33.68 69.6 33.43C69.6 33.17 69.52 32.93 69.37 32.72C69.22 32.51 68.99 32.37 68.78 32.27ZM64.87 34.47Q65.33 34.7 65.81 34.82Q66.29 34.93 66.79 34.93Q67.29 34.93 67.77 34.82Q68.26 34.7 68.72 34.47Q68.93 34.36 69.03 34.29Q69.18 34.19 69.26 34.06Q69.36 33.92 69.42 33.77Q69.47 33.61 69.47 33.43Q69.47 33.25 69.42 33.09Q69.36 32.93 69.26 32.8Q69.11 32.57 68.72 32.39L68.72 32.39L48.85 20.83Q48.39 20.59 47.9 20.48Q47.42 20.36 46.92 20.36Q46.42 20.36 45.95 20.48Q45.46 20.59 44.99 20.83L44.99 20.83L44.99 20.83Q44.84 20.9 44.71 21Q44.58 21.11 44.48 21.25Q44.38 21.39 44.32 21.55Q44.26 21.7 44.24 21.87Q44.26 22.04 44.32 22.19Q44.38 22.34 44.48 22.48Q44.55 22.59 44.78 22.76Q44.9 22.85 45 22.91L64.87 34.47ZM58.18 38.44L48.91 33.04C48.29 32.73 47.61 32.56 46.92 32.56C46.23 32.56 45.54 32.73 44.93 33.04C44.74 33.14 44.49 33.28 44.34 33.49C44.19 33.69 44.11 33.94 44.11 34.2C44.11 34.45 44.19 34.7 44.34 34.91C44.49 35.12 44.93 35.35 44.93 35.35L54.21 40.75C54.82 41.06 55.5 41.23 56.19 41.23C56.88 41.23 57.56 41.06 58.18 40.75C58.18 40.75 58.63 40.51 58.78 40.3C58.92 40.1 59 39.85 59 39.59C59 39.34 58.92 39.09 58.78 38.88C58.63 38.68 58.18 38.44 58.18 38.44ZM54.27 40.63Q54.73 40.87 55.22 40.98Q55.69 41.1 56.19 41.1Q56.7 41.1 57.19 40.98Q57.67 40.86 58.12 40.63Q58.23 40.58 58.35 40.5Q58.59 40.34 58.67 40.23Q58.77 40.09 58.82 39.93Q58.87 39.77 58.87 39.59Q58.87 39.42 58.82 39.26Q58.77 39.1 58.67 38.96Q58.59 38.85 58.35 38.69Q58.23 38.61 58.12 38.55L58.12 38.55L48.85 33.16Q48.39 32.92 47.9 32.81Q47.42 32.69 46.92 32.69Q46.84 32.69 46.75 32.7Q46.34 32.72 45.93 32.81Q45.58 32.9 45.26 33.04Q45.12 33.09 45 33.16Q44.8 33.26 44.69 33.33Q44.53 33.44 44.45 33.56Q44.35 33.7 44.3 33.86Q44.24 34.02 44.24 34.2Q44.24 34.38 44.3 34.54Q44.35 34.69 44.45 34.83Q44.52 34.94 44.76 35.1Q44.89 35.18 45 35.24L45 35.24L54.27 40.63ZM47.58 44.6L33.01 36.12C32.4 35.81 31.72 35.65 31.03 35.65C30.34 35.65 29.66 35.81 29.04 36.12C28.8 36.21 28.59 36.36 28.44 36.57C28.3 36.78 28.22 37.03 28.22 37.28C28.22 37.54 28.3 37.79 28.44 37.99C28.59 38.2 29.04 38.44 29.04 38.44L43.61 46.91C44.23 47.23 44.91 47.39 45.6 47.39C46.29 47.39 46.97 47.23 47.58 46.91C47.82 46.83 48.03 46.68 48.18 46.47C48.33 46.26 48.41 46.01 48.41 45.76C48.41 45.5 48.33 45.25 48.18 45.05C48.03 44.84 47.82 44.68 47.58 44.6ZM43.67 46.8Q44.13 47.03 44.62 47.15Q45.1 47.26 45.6 47.26Q46.1 47.26 46.57 47.15Q47.06 47.03 47.52 46.8L47.53 46.79L47.54 46.79Q47.7 46.73 47.83 46.64Q47.97 46.54 48.07 46.39Q48.17 46.25 48.22 46.1Q48.27 45.94 48.27 45.76Q48.27 45.58 48.22 45.42Q48.17 45.26 48.07 45.12Q47.97 44.98 47.83 44.88Q47.7 44.78 47.54 44.73L47.53 44.72L32.95 36.24Q32.49 36.01 32 35.89Q31.53 35.78 31.03 35.78Q30.52 35.78 30.05 35.89Q29.56 36.01 29.1 36.24L29.09 36.25L29.08 36.25Q28.92 36.3 28.79 36.4Q28.65 36.5 28.55 36.65Q28.45 36.79 28.4 36.94Q28.35 37.1 28.35 37.28Q28.35 37.46 28.4 37.62Q28.45 37.78 28.55 37.92Q28.63 38.03 28.87 38.18Q28.99 38.26 29.1 38.32L29.1 38.32L43.67 46.8ZM36.99 50.77L30.36 46.92C29.75 46.6 29.07 46.44 28.38 46.44C27.69 46.44 27.01 46.6 26.39 46.92C26.15 47 25.94 47.15 25.79 47.36C25.65 47.57 25.57 47.82 25.57 48.07C25.57 48.33 25.65 48.58 25.79 48.78C25.94 48.99 26.38 49.23 26.38 49.23L33.01 53.08C33.63 53.4 34.31 53.56 35 53.56C35.69 53.56 36.37 53.4 36.99 53.08C37.23 53 37.43 52.84 37.58 52.64C37.73 52.43 37.81 52.18 37.81 51.93C37.81 51.67 37.73 51.42 37.58 51.21C37.43 51.01 37.23 50.85 36.99 50.77ZM33.08 52.97Q33.54 53.2 34.02 53.32Q34.5 53.43 35 53.43Q35.5 53.43 35.98 53.32Q36.47 53.2 36.93 52.96L36.94 52.96L36.94 52.96Q37.1 52.9 37.23 52.81Q37.37 52.71 37.48 52.56Q37.57 52.42 37.63 52.26Q37.68 52.1 37.68 51.93Q37.68 51.75 37.63 51.59Q37.57 51.43 37.48 51.29Q37.37 51.14 37.23 51.04Q37.1 50.95 36.94 50.89L36.93 50.89L30.3 47.03Q29.84 46.8 29.35 46.68Q28.88 46.57 28.38 46.57Q27.88 46.57 27.4 46.68Q26.91 46.8 26.45 47.03L26.44 47.04L26.43 47.04Q26.26 47.1 26.13 47.2Q26 47.3 25.9 47.44Q25.8 47.58 25.75 47.73Q25.7 47.89 25.7 48.07Q25.7 48.25 25.75 48.41Q25.8 48.57 25.9 48.71Q25.98 48.82 26.22 48.97Q26.34 49.06 26.45 49.11L26.45 49.11L33.08 52.97Z" fill="url(#paint_linear_220_14829_1)" fill-opacity="1.000000" fill-rule="evenodd"/>
</svg>
