<svg width="87.000000" height="70.000000" viewBox="0 0 87 70" fill="none" xmlns="http://www.w3.org/2000/svg" xmlns:xlink="http://www.w3.org/1999/xlink">
	<desc>
			Created with Pixso.
	</desc>
	<defs>
		<filter id="filter_220_14844_dd" x="1.105957" y="13.017090" width="85.311035" height="54.812012" filterUnits="userSpaceOnUse" color-interpolation-filters="sRGB">
			<feFlood flood-opacity="0" result="BackgroundImageFix"/>
			<feColorMatrix in="SourceAlpha" type="matrix" values="0 0 0 0 0 0 0 0 0 0 0 0 0 0 0 0 0 0 127 0" result="hardAlpha"/>
			<feOffset dx="0" dy="5.24444"/>
			<feGaussianBlur stdDeviation="2.18519"/>
			<feComposite in2="hardAlpha" operator="out" k2="-1" k3="1"/>
			<feColorMatrix type="matrix" values="0 0 0 0 0.098039 0 0 0 0 0.21176 0 0 0 0 0.48235 0 0 0 0.5 0"/>
			<feBlend mode="normal" in2="BackgroundImageFix" result="effect_dropShadow_1"/>
			<feBlend mode="normal" in="SourceGraphic" in2="effect_dropShadow_1" result="shape"/>
			<feColorMatrix in="SourceAlpha" type="matrix" values="0 0 0 0 0 0 0 0 0 0 0 0 0 0 0 0 0 0 127 0" result="hardAlpha"/>
			<feOffset dx="0" dy="0"/>
			<feGaussianBlur stdDeviation="1.74815"/>
			<feComposite in2="hardAlpha" operator="arithmetic" k2="-1" k3="1"/>
			<feColorMatrix type="matrix" values="0 0 0 0 1 0 0 0 0 1 0 0 0 0 1 0 0 0 0.25 0"/>
			<feBlend mode="normal" in2="shape" result="effect_innerShadow_2"/>
		</filter>
		<filter id="filter_220_14846_dd" x="5.693359" y="22.182617" width="68.823486" height="29.541992" filterUnits="userSpaceOnUse" color-interpolation-filters="sRGB">
			<feFlood flood-opacity="0" result="BackgroundImageFix"/>
			<feBlend mode="normal" in="SourceGraphic" in2="BackgroundImageFix" result="shape"/>
			<feGaussianBlur stdDeviation="0.874074" result="effect_layerBlur_1"/>
		</filter>
		<filter id="filter_220_14849_dd" x="1.205078" y="22.992188" width="70.686279" height="24.297852" filterUnits="userSpaceOnUse" color-interpolation-filters="sRGB">
			<feFlood flood-opacity="0" result="BackgroundImageFix"/>
			<feGaussianBlur in="BackgroundImage" stdDeviation="0.437037"/>
			<feComposite in2="SourceAlpha" operator="in" result="effect_backgroundBlur_1"/>
			<feBlend mode="normal" in="SourceGraphic" in2="effect_backgroundBlur_1" result="shape"/>
		</filter>
		<filter id="filter_220_14852_dd" x="1.207031" y="9.464844" width="70.682617" height="35.779785" filterUnits="userSpaceOnUse" color-interpolation-filters="sRGB">
			<feFlood flood-opacity="0" result="BackgroundImageFix"/>
			<feGaussianBlur in="BackgroundImage" stdDeviation="1.31111"/>
			<feComposite in2="SourceAlpha" operator="in" result="effect_backgroundBlur_1"/>
			<feBlend mode="normal" in="SourceGraphic" in2="effect_backgroundBlur_1" result="shape"/>
			<feColorMatrix in="SourceAlpha" type="matrix" values="0 0 0 0 0 0 0 0 0 0 0 0 0 0 0 0 0 0 127 0" result="hardAlpha"/>
			<feOffset dx="0" dy="0"/>
			<feGaussianBlur stdDeviation="0.655556"/>
			<feComposite in2="hardAlpha" operator="arithmetic" k2="-1" k3="1"/>
			<feColorMatrix type="matrix" values="0 0 0 0 1 0 0 0 0 1 0 0 0 0 1 0 0 0 0.5 0"/>
			<feBlend mode="normal" in2="shape" result="effect_innerShadow_2"/>
		</filter>
		<linearGradient id="paint_linear_220_14843_0" x1="76.422562" y1="22.302032" x2="9.740091" y2="43.774101" gradientUnits="userSpaceOnUse">
			<stop stop-color="#00298D"/>
			<stop offset="0.189268" stop-color="#2349A7"/>
			<stop offset="0.646435" stop-color="#3155AD"/>
			<stop offset="1.000000" stop-color="#032C91"/>
		</linearGradient>
		<radialGradient id="paint_radial_220_14844_0" cx="0.000000" cy="0.000000" r="1.000000" gradientUnits="userSpaceOnUse" gradientTransform="translate(43.7614 35.1785) rotate(90) scale(28.6214 49.5543)">
			<stop offset="0.052083" stop-color="#062E8D"/>
			<stop offset="1.000000" stop-color="#2968FE"/>
		</radialGradient>
		<linearGradient id="paint_linear_220_14844_1" x1="32.246399" y1="13.129541" x2="51.834381" y2="54.822899" gradientUnits="userSpaceOnUse">
			<stop stop-color="#FFFFFF" stop-opacity="0.000000"/>
			<stop offset="1.000000" stop-color="#FFFFFF" stop-opacity="0.431373"/>
		</linearGradient>
		<linearGradient id="paint_linear_220_14850_0" x1="63.593582" y1="48.066833" x2="24.564667" y2="15.744896" gradientUnits="userSpaceOnUse">
			<stop stop-color="#E9F7FF"/>
			<stop offset="0.579246" stop-color="#D7F0FF" stop-opacity="0.568627"/>
			<stop offset="0.956471" stop-color="#BDE7FF" stop-opacity="0.000000"/>
		</linearGradient>
		<linearGradient id="paint_linear_220_14851_0" x1="71.962326" y1="57.301147" x2="9.755341" y2="16.177628" gradientUnits="userSpaceOnUse">
			<stop stop-color="#E9F7FF"/>
			<stop offset="0.579246" stop-color="#D7F0FF" stop-opacity="0.568627"/>
			<stop offset="0.956471" stop-color="#BDE7FF" stop-opacity="0.000000"/>
		</linearGradient>
		<linearGradient id="paint_linear_220_14852_0" x1="1.207027" y1="6.374977" x2="71.889771" y2="45.244774" gradientUnits="userSpaceOnUse">
			<stop offset="0.052955" stop-color="#3FA6E0"/>
			<stop offset="0.461273" stop-color="#79CFFF"/>
			<stop offset="1.000000" stop-color="#79CFFF"/>
		</linearGradient>
		<linearGradient id="paint_linear_220_14852_1" x1="70.040382" y1="50.470947" x2="6.844879" y2="11.932350" gradientUnits="userSpaceOnUse">
			<stop stop-color="#E9F7FF"/>
			<stop offset="0.923987" stop-color="#BDE7FF" stop-opacity="0.000000"/>
		</linearGradient>
	</defs>
	<rect id="icon_data_area_isometric_3d" width="84.000000" height="70.000000" fill="#FFFFFF" fill-opacity="0"/>
	<path id="lateral" d="M79.85 35.18C79.85 40.52 76.32 45.85 69.28 49.92C55.18 58.06 32.33 58.06 18.23 49.92C10.71 45.57 7.24 39.78 7.75 34.09C7.7 34.3 7.67 34.5 7.65 34.71C6.97 42.14 9.25 47.25 18.23 52.42C32.33 60.57 55.18 60.56 69.28 52.42C77.35 47.76 80.02 41.85 79.85 35.18Z" fill="url(#paint_linear_220_14843_0)" fill-opacity="1.000000" fill-rule="nonzero"/>
	<g filter="url(#filter_220_14844_dd)">
		<path id="circle" d="M43.76 56.02C63.69 56.02 79.86 46.69 79.86 35.17C79.86 23.66 63.69 14.32 43.76 14.32C23.82 14.32 7.66 23.66 7.66 35.17C7.66 46.69 23.82 56.02 43.76 56.02Z" fill="url(#paint_radial_220_14844_0)" fill-opacity="1.000000" fill-rule="nonzero"/>
	</g>
	<path id="circle" d="M79.86 35.17C79.86 46.69 63.69 56.02 43.76 56.02C23.82 56.02 7.66 46.69 7.66 35.17C7.66 23.66 23.82 14.32 43.76 14.32C63.69 14.32 79.86 23.66 79.86 35.17ZM51.02 55.47Q47.44 55.89 43.76 55.89Q40.07 55.89 36.5 55.47Q33.01 55.06 29.74 54.26Q26.52 53.47 23.62 52.34Q20.75 51.22 18.3 49.8Q15.84 48.39 13.91 46.73Q11.95 45.06 10.6 43.21Q9.22 41.33 8.51 39.33Q7.96 37.78 7.83 36.19Q7.79 35.68 7.79 35.17Q7.79 34.67 7.83 34.16Q7.96 32.57 8.51 31.02Q9.22 29.02 10.6 27.14Q11.95 25.29 13.91 23.62Q15.84 21.96 18.3 20.54Q20.75 19.13 23.62 18.01Q26.52 16.87 29.74 16.09Q33.01 15.29 36.5 14.88Q40.07 14.45 43.76 14.45Q47.44 14.45 51.02 14.88Q54.5 15.29 57.78 16.09Q60.99 16.87 63.89 18.01Q66.76 19.13 69.22 20.54Q71.67 21.96 73.61 23.62Q75.56 25.29 76.91 27.14Q78.29 29.02 79 31.02Q79.55 32.57 79.68 34.16Q79.73 34.67 79.73 35.17Q79.73 35.68 79.68 36.19Q79.55 37.78 79 39.33Q78.29 41.33 76.91 43.21Q75.56 45.06 73.61 46.73Q71.67 48.39 69.22 49.8Q66.76 51.22 63.89 52.34Q60.99 53.47 57.78 54.26Q54.5 55.06 51.02 55.47Z" fill="url(#paint_linear_220_14844_1)" fill-opacity="1.000000" fill-rule="evenodd"/>
	<g filter="url(#filter_220_14846_dd)">
		<path id="2" d="M36.55 42.01L63.55 26.85L63.55 24.8L36.55 39.96L19.2 30.22L19.2 32.26L36.55 42.01Z" fill="#083090" fill-opacity="0.400000" fill-rule="nonzero"/>
		<path id="1" d="M71.88 27.21C71.87 27.34 71.83 27.47 71.74 27.58C71.66 27.69 71.56 27.74 71.42 27.84L37.67 46.79C37.33 46.96 36.94 47.05 36.55 47.05C36.16 47.05 35.77 46.96 35.42 46.79L8.99 32.09C8.92 32.09 8.31 33.67 8.31 33.67L35.43 48.84C35.78 49.01 36.16 49.1 36.56 49.1C36.95 49.1 37.33 49.01 37.68 48.84L71.42 29.88C71.55 29.83 71.66 29.74 71.74 29.63C71.83 29.52 71.88 29.39 71.89 29.25L71.88 27.21Z" fill="#083090" fill-opacity="0.400000" fill-rule="nonzero"/>
	</g>
	<g filter="url(#filter_220_14849_dd)">
		<path id="2" d="M36.55 40.19L63.54 25.03L63.54 22.99L36.55 38.15L19.2 28.4L19.2 30.45L36.55 40.19Z" fill="url(#paint_linear_220_14850_0)" fill-opacity="1.000000" fill-rule="nonzero"/>
		<path id="1" d="M71.88 25.39C71.87 25.53 71.82 25.66 71.74 25.77C71.66 25.88 71.56 25.93 71.42 26.03L37.67 44.98C37.32 45.15 36.94 45.24 36.55 45.24C36.16 45.24 35.77 45.15 35.42 44.98L1.68 26.03C1.55 25.97 1.44 25.88 1.35 25.77C1.27 25.66 1.22 25.53 1.2 25.4C1.2 25.4 1.2 27.2 1.2 27.44C1.22 27.58 1.27 27.71 1.35 27.82C1.44 27.93 1.55 28.02 1.68 28.07L35.43 47.02C35.78 47.2 36.16 47.29 36.55 47.29C36.94 47.29 37.33 47.2 37.68 47.02L71.42 28.07C71.55 28.02 71.66 27.93 71.74 27.82C71.82 27.71 71.87 27.58 71.89 27.44L71.88 25.39Z" fill="url(#paint_linear_220_14851_0)" fill-opacity="1.000000" fill-rule="nonzero"/>
	</g>
	<g filter="url(#filter_220_14852_dd)">
		<path id="top" d="M3.9 24.75C3.55 24.57 3.16 24.49 2.77 24.5C2.38 24.49 2 24.58 1.66 24.76C1.53 24.82 1.42 24.91 1.34 25.02C1.26 25.13 1.21 25.26 1.2 25.4C1.22 25.53 1.27 25.66 1.36 25.77C1.44 25.88 1.55 25.97 1.68 26.03L35.43 44.98C35.77 45.15 36.16 45.24 36.55 45.24C36.94 45.24 37.33 45.15 37.68 44.98L71.42 26.03C71.55 25.98 71.67 25.9 71.76 25.78C71.84 25.67 71.88 25.53 71.88 25.39C71.88 25.26 71.84 25.12 71.76 25.01C71.67 24.89 71.55 24.81 71.42 24.76C71.07 24.59 70.68 24.5 70.29 24.5C69.9 24.5 69.52 24.59 69.17 24.76L36.54 43.08L3.9 24.75ZM63.54 22.99L39.92 9.72C39.68 9.59 39.42 9.51 39.15 9.48C38.86 9.45 38.56 9.45 38.27 9.51C38.01 9.56 37.77 9.65 37.55 9.8C37.38 9.9 37.26 10.06 37.22 10.25L35.08 21.02L23.75 22.76C23.53 22.79 23.31 22.85 23.11 22.96C22.94 23.03 22.8 23.15 22.69 23.3L19.19 28.4L36.54 38.15L63.54 22.99Z" fill="url(#paint_linear_220_14852_0)" fill-opacity="0.350000" fill-rule="nonzero"/>
	</g>
	<path id="top" d="M35.08 21.02L23.75 22.76C23.53 22.79 23.31 22.85 23.11 22.96C22.94 23.03 22.8 23.15 22.69 23.3L19.27 28.29L19.19 28.4L19.31 28.47L36.54 38.15L63.41 23.06L63.54 22.99L63.41 22.91L39.92 9.72C39.68 9.59 39.42 9.51 39.15 9.48C38.86 9.45 38.56 9.45 38.27 9.51C38.01 9.56 37.77 9.65 37.55 9.8C37.38 9.9 37.26 10.06 37.22 10.25L35.08 21.02ZM37.34 10.28L35.19 21.14L23.77 22.89Q23.58 22.91 23.4 22.98Q23.28 23.02 23.17 23.07Q23.03 23.14 22.92 23.23Q22.85 23.3 22.8 23.37L19.38 28.36L36.54 38L63.27 22.99L39.86 9.84Q39.86 9.84 39.86 9.84Q39.7 9.75 39.54 9.7Q39.34 9.64 39.14 9.61Q38.9 9.58 38.67 9.59Q38.48 9.6 38.29 9.64Q38.08 9.68 37.89 9.76Q37.75 9.82 37.63 9.91L37.62 9.91L37.62 9.91Q37.51 9.98 37.43 10.08Q37.37 10.17 37.34 10.28ZM2.77 24.5C2.38 24.49 2 24.58 1.66 24.76C1.53 24.82 1.42 24.91 1.34 25.02C1.26 25.13 1.21 25.26 1.2 25.4C1.22 25.53 1.27 25.66 1.36 25.77C1.44 25.88 1.55 25.97 1.68 26.03L35.43 44.98C35.77 45.15 36.16 45.24 36.55 45.24C36.94 45.24 37.33 45.15 37.68 44.98L71.42 26.03C71.55 25.98 71.67 25.9 71.76 25.78C71.84 25.67 71.88 25.53 71.88 25.39C71.88 25.26 71.84 25.12 71.76 25.01C71.67 24.89 71.55 24.81 71.42 24.76C71.07 24.59 70.68 24.5 70.29 24.5C69.9 24.5 69.52 24.59 69.17 24.76L36.54 43.08L3.9 24.75C3.55 24.57 3.16 24.49 2.77 24.5ZM3.84 24.86Q3.6 24.75 3.35 24.69Q3.07 24.62 2.77 24.63L2.77 24.63L2.77 24.63Q2.47 24.62 2.2 24.69Q1.95 24.76 1.72 24.88L1.71 24.88L1.71 24.88Q1.62 24.92 1.55 24.99Q1.49 25.03 1.45 25.1Q1.39 25.17 1.36 25.26Q1.34 25.32 1.33 25.39Q1.34 25.47 1.37 25.53Q1.4 25.62 1.46 25.69Q1.51 25.76 1.57 25.8Q1.64 25.87 1.73 25.91L1.74 25.91L35.49 44.86Q35.72 44.98 35.97 45.04Q36.25 45.11 36.55 45.11Q36.85 45.11 37.13 45.04Q37.38 44.98 37.61 44.86L71.37 25.91L71.38 25.9Q71.47 25.87 71.54 25.81Q71.6 25.77 71.65 25.71Q71.71 25.63 71.73 25.55Q71.75 25.48 71.75 25.39Q71.75 25.31 71.73 25.24Q71.71 25.16 71.65 25.08Q71.6 25.02 71.54 24.98Q71.47 24.92 71.38 24.89L71.37 24.88L71.36 24.88Q71.12 24.76 70.87 24.7Q70.59 24.63 70.29 24.63Q70 24.63 69.71 24.7Q69.47 24.76 69.23 24.88L36.54 43.23L3.84 24.86Z" fill="url(#paint_linear_220_14852_1)" fill-opacity="1.000000" fill-rule="evenodd"/>
</svg>
