<svg width="86.000000" height="70.000000" viewBox="0 0 86 70" fill="none" xmlns="http://www.w3.org/2000/svg" xmlns:xlink="http://www.w3.org/1999/xlink">
	<desc>
			Created with Pixso.
	</desc>
	<defs>
		<filter id="filter_220_14794_dd" x="-0.189209" y="12.990723" width="85.311035" height="54.812012" filterUnits="userSpaceOnUse" color-interpolation-filters="sRGB">
			<feFlood flood-opacity="0" result="BackgroundImageFix"/>
			<feColorMatrix in="SourceAlpha" type="matrix" values="0 0 0 0 0 0 0 0 0 0 0 0 0 0 0 0 0 0 127 0" result="hardAlpha"/>
			<feOffset dx="0" dy="5.24444"/>
			<feGaussianBlur stdDeviation="2.18519"/>
			<feComposite in2="hardAlpha" operator="out" k2="-1" k3="1"/>
			<feColorMatrix type="matrix" values="0 0 0 0 0.098039 0 0 0 0 0.21176 0 0 0 0 0.48235 0 0 0 0.5 0"/>
			<feBlend mode="normal" in2="BackgroundImageFix" result="effect_dropShadow_1"/>
			<feBlend mode="normal" in="SourceGraphic" in2="effect_dropShadow_1" result="shape"/>
			<feColorMatrix in="SourceAlpha" type="matrix" values="0 0 0 0 0 0 0 0 0 0 0 0 0 0 0 0 0 0 127 0" result="hardAlpha"/>
			<feOffset dx="0" dy="0"/>
			<feGaussianBlur stdDeviation="1.74815"/>
			<feComposite in2="hardAlpha" operator="arithmetic" k2="-1" k3="1"/>
			<feColorMatrix type="matrix" values="0 0 0 0 1 0 0 0 0 1 0 0 0 0 1 0 0 0 0.25 0"/>
			<feBlend mode="normal" in2="shape" result="effect_innerShadow_2"/>
		</filter>
		<filter id="filter_220_14796_dd" x="4.001221" y="15.679199" width="65.868164" height="34.876953" filterUnits="userSpaceOnUse" color-interpolation-filters="sRGB">
			<feFlood flood-opacity="0" result="BackgroundImageFix"/>
			<feBlend mode="normal" in="SourceGraphic" in2="BackgroundImageFix" result="shape"/>
			<feGaussianBlur stdDeviation="0.874074" result="effect_layerBlur_1"/>
		</filter>
		<filter id="filter_220_14800_dd" x="5.014404" y="12.362793" width="62.232178" height="33.926758" filterUnits="userSpaceOnUse" color-interpolation-filters="sRGB">
			<feFlood flood-opacity="0" result="BackgroundImageFix"/>
			<feGaussianBlur in="BackgroundImage" stdDeviation="0.437037"/>
			<feComposite in2="SourceAlpha" operator="in" result="effect_backgroundBlur_1"/>
			<feBlend mode="normal" in="SourceGraphic" in2="effect_backgroundBlur_1" result="shape"/>
		</filter>
		<filter id="filter_220_14805_dd" x="5.014648" y="8.288086" width="62.239990" height="35.529785" filterUnits="userSpaceOnUse" color-interpolation-filters="sRGB">
			<feFlood flood-opacity="0" result="BackgroundImageFix"/>
			<feGaussianBlur in="BackgroundImage" stdDeviation="1.31111"/>
			<feComposite in2="SourceAlpha" operator="in" result="effect_backgroundBlur_1"/>
			<feBlend mode="normal" in="SourceGraphic" in2="effect_backgroundBlur_1" result="shape"/>
			<feColorMatrix in="SourceAlpha" type="matrix" values="0 0 0 0 0 0 0 0 0 0 0 0 0 0 0 0 0 0 127 0" result="hardAlpha"/>
			<feOffset dx="0" dy="0"/>
			<feGaussianBlur stdDeviation="0.655556"/>
			<feComposite in2="hardAlpha" operator="arithmetic" k2="-1" k3="1"/>
			<feColorMatrix type="matrix" values="0 0 0 0 1 0 0 0 0 1 0 0 0 0 1 0 0 0 0.5 0"/>
			<feBlend mode="normal" in2="shape" result="effect_innerShadow_2"/>
		</filter>
		<linearGradient id="paint_linear_220_14793_0" x1="75.127884" y1="22.275665" x2="8.445414" y2="43.747734" gradientUnits="userSpaceOnUse">
			<stop stop-color="#00298D"/>
			<stop offset="0.189268" stop-color="#2349A7"/>
			<stop offset="0.646435" stop-color="#3155AD"/>
			<stop offset="1.000000" stop-color="#032C91"/>
		</linearGradient>
		<radialGradient id="paint_radial_220_14794_0" cx="0.000000" cy="0.000000" r="1.000000" gradientUnits="userSpaceOnUse" gradientTransform="translate(42.4663 35.1521) rotate(90) scale(28.6214 49.5543)">
			<stop offset="0.052083" stop-color="#062E8D"/>
			<stop offset="1.000000" stop-color="#2968FE"/>
		</radialGradient>
		<linearGradient id="paint_linear_220_14794_1" x1="30.951235" y1="13.103174" x2="50.539215" y2="54.796532" gradientUnits="userSpaceOnUse">
			<stop stop-color="#FFFFFF" stop-opacity="0.000000"/>
			<stop offset="1.000000" stop-color="#FFFFFF" stop-opacity="0.431373"/>
		</linearGradient>
		<linearGradient id="paint_linear_220_14800_0" x1="67.308998" y1="61.804832" x2="12.542046" y2="-1.927391" gradientUnits="userSpaceOnUse">
			<stop stop-color="#E9F7FF"/>
			<stop offset="0.579246" stop-color="#D7F0FF" stop-opacity="0.568627"/>
			<stop offset="0.956471" stop-color="#BDE7FF" stop-opacity="0.000000"/>
		</linearGradient>
		<linearGradient id="paint_linear_220_14805_0" x1="5.014668" y1="5.219807" x2="67.254631" y2="43.817928" gradientUnits="userSpaceOnUse">
			<stop offset="0.052955" stop-color="#3FA6E0"/>
			<stop offset="0.461273" stop-color="#79CFFF"/>
			<stop offset="1.000000" stop-color="#79CFFF"/>
		</linearGradient>
		<linearGradient id="paint_linear_220_14805_1" x1="65.626152" y1="49.007568" x2="9.979103" y2="10.738327" gradientUnits="userSpaceOnUse">
			<stop stop-color="#E9F7FF"/>
			<stop offset="0.923987" stop-color="#BDE7FF" stop-opacity="0.000000"/>
		</linearGradient>
	</defs>
	<rect id="icon_brain_isometric_3d" width="84.000000" height="70.000000" transform=" rotate(-0.000000)" fill="#FFFFFF" fill-opacity="0"/>
	<path id="lateral" d="M78.56 35.16C78.56 40.49 75.02 45.82 67.99 49.89C53.89 58.03 31.03 58.03 16.93 49.89C9.41 45.54 5.94 39.76 6.45 34.07C6.41 34.27 6.37 34.48 6.35 34.69C5.67 42.12 7.96 47.22 16.93 52.4C31.03 60.54 53.89 60.54 67.99 52.4C76.06 47.73 78.72 41.82 78.56 35.16Z" fill="url(#paint_linear_220_14793_0)" fill-opacity="1.000000" fill-rule="nonzero"/>
	<g filter="url(#filter_220_14794_dd)">
		<path id="circle" d="M42.46 56C62.4 56 78.56 46.66 78.56 35.15C78.56 23.63 62.4 14.3 42.46 14.3C22.52 14.3 6.36 23.63 6.36 35.15C6.36 46.66 22.52 56 42.46 56Z" fill="url(#paint_radial_220_14794_0)" fill-opacity="1.000000" fill-rule="nonzero"/>
	</g>
	<path id="circle" d="M78.56 35.15C78.56 46.66 62.4 56 42.46 56C22.52 56 6.36 46.66 6.36 35.15C6.36 23.63 22.52 14.3 42.46 14.3C62.4 14.3 78.56 23.63 78.56 35.15ZM49.72 55.44Q46.14 55.87 42.46 55.87Q38.78 55.87 35.2 55.44Q31.72 55.03 28.44 54.23Q25.23 53.45 22.33 52.31Q19.45 51.19 17 49.78Q14.55 48.36 12.61 46.71Q10.66 45.04 9.3 43.19Q7.93 41.3 7.22 39.31Q6.67 37.75 6.53 36.16Q6.49 35.65 6.49 35.15Q6.49 34.64 6.53 34.14Q6.67 32.54 7.22 30.99Q7.93 28.99 9.3 27.11Q10.66 25.26 12.61 23.59Q14.55 21.93 17 20.52Q19.45 19.1 22.33 17.98Q25.23 16.85 28.44 16.06Q31.72 15.26 35.2 14.85Q38.78 14.43 42.46 14.43Q46.14 14.43 49.72 14.85Q53.21 15.26 56.48 16.06Q59.7 16.85 62.6 17.98Q65.47 19.1 67.92 20.52Q70.37 21.93 72.31 23.59Q74.26 25.26 75.62 27.11Q77 28.99 77.7 30.99Q78.26 32.54 78.39 34.13Q78.43 34.64 78.43 35.15Q78.43 35.66 78.39 36.16Q78.26 37.75 77.7 39.31Q77 41.3 75.62 43.19Q74.26 45.04 72.31 46.71Q70.37 48.36 67.92 49.78Q65.47 51.19 62.6 52.31Q59.7 53.45 56.48 54.23Q53.21 55.03 49.72 55.44Z" fill="url(#paint_linear_220_14794_1)" fill-opacity="1.000000" fill-rule="evenodd"/>
	<g filter="url(#filter_220_14796_dd)">
		<path id="shadow" d="M56.9431 36.458C59.272 36.4004 61.5571 35.8306 63.6282 34.7915C66.1873 33.3525 67.1692 31.6201 67.2434 29.998C67.3015 31.9448 66.7166 35.5459 63.6282 37.2837C61.5569 38.3218 59.2717 38.8916 56.9431 38.9502C56.6685 38.9663 56.3931 38.9473 56.1233 38.895C55.8787 38.8481 55.6431 38.7642 55.4253 38.646L46.3442 33.5347L21.2495 19.1748L23.2141 18.3013L46.343 31.0435L55.4241 36.1548C55.6421 36.2734 55.8782 36.3569 56.1233 36.4023C56.3928 36.4565 56.6685 36.4751 56.9431 36.458ZM66.0095 25.1113C66.0781 24.1978 66.0857 23.2812 66.0322 22.3667C66.0322 22.4546 66.021 22.54 66.0083 22.6255C65.8523 23.5488 65.3857 24.3955 64.6821 25.0322C65.0647 25.3423 65.417 25.686 65.7346 26.0591C65.8716 25.7573 65.9641 25.438 66.0095 25.1113ZM52.1672 39.6206C52.1738 39.5811 52.1765 39.5415 52.1753 39.5015C52.196 39.7959 52.1868 41.1318 52.1824 41.7285C52.1814 41.8838 52.1807 41.9888 52.1809 42.0127C52.1804 42.043 52.1777 42.0737 52.1729 42.104C52.0029 42.9102 51.6465 43.668 51.1309 44.3198C50.615 44.9717 49.9534 45.5005 49.1965 45.8662C45.9607 47.4976 42.3113 48.187 38.6841 47.8516C36.3442 47.7256 34.0371 47.2549 31.8418 46.4561C30.4575 46.8955 29.0176 47.1465 27.563 47.2017C24.4355 47.354 21.3289 46.6309 18.6096 45.1182C17.127 44.2852 14.1255 42.2583 13.1355 40.7192C12.802 39.8701 12.6672 38.959 12.741 38.0527C10.3174 37.3853 8.31885 35.9683 6.62354 34.1533L7.66748 33.1919C9.00952 34.3691 10.5354 35.064 13.1047 35.7158C13.0022 35.8706 12.9182 36.0366 12.855 36.2104C12.7405 36.5361 12.7083 36.8843 12.7615 37.2246C12.8213 37.5806 12.9465 37.9224 13.1311 38.2349C14.7329 39.9463 16.5759 41.4282 18.605 42.6348C21.365 44.0444 24.4424 44.7603 27.5583 44.7183C29.0132 44.6631 30.4531 44.4116 31.8372 43.9717C34.0322 44.7715 36.3394 45.2422 38.6797 45.3672C42.3066 45.7021 45.9558 45.0132 49.1919 43.3828C49.9487 43.0171 50.6099 42.4883 51.1255 41.8364C51.6411 41.1846 51.9973 40.4268 52.1672 39.6206Z" clip-rule="evenodd" fill="#083090" fill-opacity="0.400000" fill-rule="evenodd"/>
	</g>
	<g filter="url(#filter_220_14800_dd)">
		<path id="lateral" d="M56.9426 34.8135C59.2712 34.7559 61.5566 34.186 63.6277 33.147C66.1868 31.708 67.1687 29.9756 67.2427 28.3535C67.301 30.2998 66.7158 33.9014 63.6277 35.6392C61.5564 36.6772 59.2712 37.2471 56.9426 37.3057C56.668 37.3213 56.3923 37.3027 56.1226 37.25C55.8779 37.2036 55.6423 37.1196 55.4248 37.0015L46.3435 31.8901L18.0945 16.0005C17.9609 15.9385 17.8428 15.8481 17.749 15.7363C17.6553 15.6245 17.5879 15.4941 17.5518 15.354C17.4993 15.0293 17.4766 12.8506 17.4993 12.3628C17.5005 12.4194 17.5083 12.4751 17.5083 12.5308C17.5176 12.6416 17.5322 12.7529 17.5518 12.8638C17.5879 13.0034 17.6553 13.1338 17.7488 13.2456C17.8423 13.3569 17.96 13.4473 18.0935 13.5093L46.3425 29.3989L55.4236 34.5103C55.6416 34.6284 55.8774 34.7124 56.1226 34.7578C56.3921 34.8115 56.668 34.8306 56.9426 34.8135ZM66.0093 23.4668C66.0779 22.5532 66.0854 21.6362 66.032 20.7222C66.032 20.8096 66.0205 20.8955 66.0081 20.981C65.8518 21.9043 65.3853 22.751 64.6816 23.3877C65.0645 23.6978 65.4167 24.041 65.7344 24.4146C65.8713 24.1128 65.9639 23.7935 66.0093 23.4668ZM6.66089 25.1221C6.16382 24.7344 5.75928 24.2461 5.47534 23.6909C5.19141 23.1353 5.03467 22.5269 5.01636 21.9067C4.99121 23.3286 5.20776 24.7446 5.65723 26.0977C5.91919 25.7085 6.26074 25.3765 6.66089 25.1221ZM52.1689 37.9756C52.1758 37.9365 52.1785 37.8965 52.177 37.8569C52.1978 38.1514 52.1885 39.4873 52.1843 40.084L52.1843 40.084L52.1843 40.084C52.1833 40.2393 52.1826 40.3442 52.1826 40.3682C52.1824 40.3984 52.1797 40.4292 52.1748 40.459C52.0049 41.2656 51.6484 42.0234 51.1326 42.6753C50.6169 43.3271 49.9553 43.856 49.1982 44.2217C45.9626 45.853 42.313 46.5425 38.686 46.207C36.3459 46.0811 34.0391 45.6104 31.8435 44.8115C30.4592 45.251 29.0195 45.5015 27.5647 45.5571C24.4375 45.709 21.3308 44.9863 18.6113 43.4736C17.1289 42.6401 14.1272 40.6138 13.1375 39.0747C12.804 38.2256 12.6692 37.3145 12.7429 36.4077C10.3193 35.7407 8.13623 34.4248 6.44092 32.6099C5.68164 31.7461 5.271 30.6421 5.28564 29.5044C5.28687 29.4111 5.27881 28.3188 5.25952 27.5742C5.36694 28.5259 5.78003 29.4204 6.4397 30.1299C8.21973 32.0493 10.5374 33.4194 13.1067 34.0713C13.0039 34.2261 12.9202 34.3921 12.8569 34.5654C12.7422 34.8916 12.7102 35.2397 12.7634 35.5801C12.823 35.9355 12.9482 36.2778 13.1328 36.5903C14.7346 38.3018 16.5776 39.7832 18.6069 40.9902C21.3669 42.3994 24.4443 43.1157 27.5601 43.0737C29.0149 43.0186 30.4548 42.7671 31.8391 42.3271C34.0342 43.127 36.3413 43.5977 38.6814 43.7227C42.3083 44.0576 45.9575 43.3687 49.1938 41.7383C49.9504 41.3726 50.6118 40.8438 51.1272 40.1919C51.6428 39.5396 51.999 38.7817 52.1689 37.9756Z" clip-rule="evenodd" fill="url(#paint_linear_220_14800_0)" fill-opacity="1.000000" fill-rule="evenodd"/>
	</g>
	<g filter="url(#filter_220_14805_dd)">
		<mask id="mask_220_14805" fill="white">
			<path id="top" d="M64.6748 23.3877C65.9241 24.3594 66.7983 25.7153 67.1553 27.2334C67.2068 27.4766 67.239 27.7231 67.251 27.9712C67.3206 29.707 66.3933 31.5957 63.6335 33.1514C61.5625 34.1904 59.2773 34.7603 56.9485 34.8179C56.6738 34.835 56.3982 34.8164 56.1287 34.7627C55.8835 34.7168 55.6475 34.6333 55.4294 34.5146L50.3684 31.668L46.3484 29.4067L18.0994 13.5176C17.9661 13.4551 17.8484 13.3652 17.7546 13.2534C17.6611 13.1421 17.5938 13.0117 17.5576 12.8721C17.5383 12.7607 17.5234 12.6494 17.5144 12.5386C17.4922 12.3057 17.5029 12.0708 17.5464 11.8408C17.5984 11.6011 17.7046 11.376 17.8567 11.1812C18.009 10.9863 18.2036 10.8267 18.4268 10.7139C21.0203 9.33887 23.8914 8.53369 26.8384 8.35498C29.2937 8.1416 31.7673 8.43896 34.0959 9.22754C35.1377 8.76123 36.2634 8.5 37.4087 8.4585C39.2949 8.38184 41.1816 8.6001 42.9968 9.10498C45.6418 9.70068 48.0659 10.998 50.0012 12.853C50.2839 12.7964 50.5781 12.7495 50.885 12.7153C52.1208 12.5894 53.3691 12.6484 54.5867 12.8896C57.3137 13.4897 59.9207 14.5239 62.3027 15.9497C64.9575 17.4375 65.9634 19 66.033 20.3945C66.043 20.5903 66.0347 20.7866 66.0081 20.981C65.8499 21.9053 65.3809 22.752 64.6748 23.3877ZM52.0657 37.5151C51.9536 37.3511 51.802 37.2163 51.6243 37.1226L27.0679 23.3091L23.9282 21.5435L14.2942 16.124C13.9402 15.938 13.5469 15.8335 13.1445 15.8188C12.532 15.7817 11.918 15.7798 11.3052 15.813C10.6091 15.8369 9.92627 16.0059 9.30249 16.3076C8.31201 16.7793 7.42969 17.4419 6.70947 18.2554C5.98901 19.0688 5.44556 20.0161 5.11157 21.04C5.04761 21.3237 5.01514 21.6138 5.01465 21.9043C5.03174 22.5259 5.18774 23.1357 5.47168 23.6924C5.75586 24.249 6.16089 24.7383 6.65918 25.127C6.31274 25.3301 6.01245 25.6001 5.7771 25.9204C5.54175 26.2412 5.37622 26.605 5.29053 26.9902C5.26147 27.1489 5.2478 27.3101 5.24951 27.4712C5.32886 28.4648 5.74756 29.4038 6.43896 30.1382C8.21899 32.0576 10.5364 33.4277 13.106 34.0791C13.0032 34.2339 12.9194 34.3999 12.8562 34.5737C12.7415 34.8994 12.7092 35.2476 12.7627 35.5884C12.7969 35.792 12.8552 35.9907 12.936 36.1816C12.9504 36.2305 12.9692 36.2778 12.9917 36.3237C13.5483 37.1455 14.2017 37.9009 14.9385 38.5747C15.1003 38.7085 15.2805 38.8438 15.4607 38.9785L15.593 39.0894C16.5544 39.7876 17.5596 40.4268 18.6025 41.0029C21.322 42.5151 24.4287 43.2383 27.5559 43.0859C29.0107 43.0308 30.4507 42.7798 31.8347 42.3394C34.03 43.1396 36.3372 43.6104 38.6772 43.7349C42.3042 44.0708 45.9536 43.3818 49.1895 41.7505C49.9482 41.3838 50.6108 40.8535 51.1267 40.1992C51.6428 39.5449 51.9988 38.7847 52.1672 37.9761C52.1819 37.8931 52.1787 37.8076 52.158 37.7261C52.1394 37.6514 52.1082 37.5796 52.0657 37.5151Z" clip-rule="evenodd" fill="" fill-opacity="1.000000" fill-rule="evenodd"/>
		</mask>
		<path id="top" d="M64.6748 23.3877C65.9241 24.3594 66.7983 25.7153 67.1553 27.2334C67.2068 27.4766 67.239 27.7231 67.251 27.9712C67.3206 29.707 66.3933 31.5957 63.6335 33.1514C61.5625 34.1904 59.2773 34.7603 56.9485 34.8179C56.6738 34.835 56.3982 34.8164 56.1287 34.7627C55.8835 34.7168 55.6475 34.6333 55.4294 34.5146L50.3684 31.668L46.3484 29.4067L18.0994 13.5176C17.9661 13.4551 17.8484 13.3652 17.7546 13.2534C17.6611 13.1421 17.5938 13.0117 17.5576 12.8721C17.5383 12.7607 17.5234 12.6494 17.5144 12.5386C17.4922 12.3057 17.5029 12.0708 17.5464 11.8408C17.5984 11.6011 17.7046 11.376 17.8567 11.1812C18.009 10.9863 18.2036 10.8267 18.4268 10.7139C21.0203 9.33887 23.8914 8.53369 26.8384 8.35498C29.2937 8.1416 31.7673 8.43896 34.0959 9.22754C35.1377 8.76123 36.2634 8.5 37.4087 8.4585C39.2949 8.38184 41.1816 8.6001 42.9968 9.10498C45.6418 9.70068 48.0659 10.998 50.0012 12.853C50.2839 12.7964 50.5781 12.7495 50.885 12.7153C52.1208 12.5894 53.3691 12.6484 54.5867 12.8896C57.3137 13.4897 59.9207 14.5239 62.3027 15.9497C64.9575 17.4375 65.9634 19 66.033 20.3945C66.043 20.5903 66.0347 20.7866 66.0081 20.981C65.8499 21.9053 65.3809 22.752 64.6748 23.3877ZM52.0657 37.5151C51.9536 37.3511 51.802 37.2163 51.6243 37.1226L27.0679 23.3091L23.9282 21.5435L14.2942 16.124C13.9402 15.938 13.5469 15.8335 13.1445 15.8188C12.532 15.7817 11.918 15.7798 11.3052 15.813C10.6091 15.8369 9.92627 16.0059 9.30249 16.3076C8.31201 16.7793 7.42969 17.4419 6.70947 18.2554C5.98901 19.0688 5.44556 20.0161 5.11157 21.04C5.04761 21.3237 5.01514 21.6138 5.01465 21.9043C5.03174 22.5259 5.18774 23.1357 5.47168 23.6924C5.75586 24.249 6.16089 24.7383 6.65918 25.127C6.31274 25.3301 6.01245 25.6001 5.7771 25.9204C5.54175 26.2412 5.37622 26.605 5.29053 26.9902C5.26147 27.1489 5.2478 27.3101 5.24951 27.4712C5.32886 28.4648 5.74756 29.4038 6.43896 30.1382C8.21899 32.0576 10.5364 33.4277 13.106 34.0791C13.0032 34.2339 12.9194 34.3999 12.8562 34.5737C12.7415 34.8994 12.7092 35.2476 12.7627 35.5884C12.7969 35.792 12.8552 35.9907 12.936 36.1816C12.9504 36.2305 12.9692 36.2778 12.9917 36.3237C13.5483 37.1455 14.2017 37.9009 14.9385 38.5747C15.1003 38.7085 15.2805 38.8438 15.4607 38.9785L15.593 39.0894C16.5544 39.7876 17.5596 40.4268 18.6025 41.0029C21.322 42.5151 24.4287 43.2383 27.5559 43.0859C29.0107 43.0308 30.4507 42.7798 31.8347 42.3394C34.03 43.1396 36.3372 43.6104 38.6772 43.7349C42.3042 44.0708 45.9536 43.3818 49.1895 41.7505C49.9482 41.3838 50.6108 40.8535 51.1267 40.1992C51.6428 39.5449 51.9988 38.7847 52.1672 37.9761C52.1819 37.8931 52.1787 37.8076 52.158 37.7261C52.1394 37.6514 52.1082 37.5796 52.0657 37.5151Z" clip-rule="evenodd" fill="url(#paint_linear_220_14805_0)" fill-opacity="0.350000" fill-rule="evenodd" mask="url(#mask_220_14805)"/>
	</g>
	<path id="top" d="M64.779 23.4704C64.7446 23.4425 64.7098 23.4149 64.6748 23.3877C64.7078 23.358 64.7402 23.3279 64.7721 23.2973C65.424 22.6727 65.8572 21.8621 66.0081 20.981C66.0347 20.7866 66.043 20.5903 66.033 20.3945C65.9634 19 64.9575 17.4375 62.3027 15.9497C59.9207 14.5239 57.3137 13.4897 54.5867 12.8896C53.3691 12.6484 52.1208 12.5894 50.885 12.7153C50.5781 12.7495 50.2839 12.7964 50.0012 12.853C48.0659 10.998 45.6418 9.70068 42.9968 9.10498C41.1816 8.6001 39.2949 8.38184 37.4087 8.4585C36.2634 8.5 35.1377 8.76123 34.0959 9.22754C31.7673 8.43896 29.2937 8.1416 26.8384 8.35498C23.8914 8.53369 21.0203 9.33887 18.4268 10.7139C18.2036 10.8267 18.009 10.9863 17.8567 11.1812C17.7046 11.376 17.5984 11.6011 17.5464 11.8408C17.5029 12.0708 17.4922 12.3057 17.5144 12.5386C17.5234 12.6494 17.5383 12.7607 17.5576 12.8721C17.5938 13.0117 17.6611 13.1421 17.7546 13.2534C17.8484 13.3652 17.9661 13.4551 18.0994 13.5176L46.3484 29.4067L50.3684 31.668L55.4294 34.5146C55.6475 34.6333 55.8835 34.7168 56.1287 34.7627C56.3982 34.8164 56.6738 34.835 56.9485 34.8179C59.2773 34.7603 61.5625 34.1904 63.6335 33.1514C66.3933 31.5957 67.3206 29.707 67.251 27.9712C67.239 27.7231 67.2068 27.4766 67.1553 27.2334C66.8083 25.7579 65.9727 24.4356 64.779 23.4704ZM63.5731 33.035Q65.4989 31.9483 66.3931 30.5581Q66.9065 29.7592 67.0592 28.8964Q67.1389 28.4457 67.1201 27.9775Q67.1075 27.7224 67.0667 27.4718Q67.0496 27.3671 67.0276 27.2632Q66.9118 26.7708 66.7253 26.3068Q66.4891 25.719 66.1394 25.1768Q65.8766 24.7693 65.562 24.4068Q65.1275 23.9061 64.5942 23.4912L64.4707 23.395L64.5872 23.2905Q64.8843 23.0228 65.1206 22.7093Q65.2924 22.4813 65.4321 22.229Q65.6163 21.8964 65.7336 21.5418Q65.8276 21.2575 65.8787 20.959Q65.8985 20.8128 65.904 20.6661Q65.9089 20.5337 65.9021 20.4009Q65.9011 20.3799 65.8997 20.359Q65.8324 19.3003 65.0344 18.2881Q64.106 17.1104 62.2388 16.064L62.2354 16.062Q60.6247 15.0978 58.9096 14.385Q56.8135 13.5138 54.5613 13.0181Q53.6531 12.838 52.7384 12.7949Q51.8223 12.7516 50.8997 12.8457Q50.459 12.895 50.0269 12.9814L49.96 12.9951L49.9104 12.9478Q49.3228 12.3844 48.68 11.8933Q47.7495 11.1822 46.7034 10.6226Q45.935 10.2113 45.1292 9.89504Q44.0802 9.48339 42.968 9.23291L42.9648 9.23242L42.9617 9.23145Q41.6583 8.86887 40.3304 8.70633Q38.8865 8.52958 37.4136 8.58936Q36.5071 8.6225 35.6441 8.83357Q34.8797 9.02056 34.1494 9.34717L34.1025 9.36816L34.054 9.35156Q33.2777 9.08876 32.4838 8.89977Q31.5048 8.6667 30.499 8.5459Q29.6029 8.43827 28.7052 8.42201Q27.7783 8.40523 26.8496 8.48584L26.8462 8.48584Q25.6663 8.55746 24.5098 8.76186Q23.5139 8.93789 22.5354 9.2124Q21.3549 9.54334 20.2303 10.0093Q19.3406 10.3779 18.4858 10.8311Q18.3079 10.9211 18.1621 11.0481Q18.0518 11.1443 17.96 11.2617Q17.8434 11.4111 17.7688 11.5791Q17.7073 11.7175 17.6743 11.8686L17.6743 11.8687Q17.6478 12.0109 17.6389 12.1542Q17.6272 12.3401 17.645 12.5278Q17.6575 12.6796 17.6858 12.8436Q17.7073 12.9247 17.7436 12.9985Q17.7883 13.0892 17.8552 13.1689Q17.9108 13.2353 17.9769 13.2883Q18.0579 13.3533 18.1548 13.3984L18.1594 13.4009L46.4128 29.2925L50.4326 31.5537L55.4922 34.3994Q55.6152 34.4663 55.7446 34.517Q55.9421 34.5943 56.1543 34.6338Q56.344 34.6718 56.5354 34.6855Q56.737 34.6998 56.9404 34.687L56.9453 34.687Q57.8712 34.664 58.7817 34.5338Q59.5746 34.4204 60.356 34.2256Q61.3253 33.9839 62.2485 33.6241Q62.9231 33.3611 63.5731 33.035ZM38.6772 43.7349C42.3042 44.0708 45.9536 43.3818 49.1895 41.7505C49.9482 41.3838 50.6108 40.8535 51.1267 40.1992C51.6428 39.5449 51.9988 38.7847 52.1672 37.9761C52.1819 37.8931 52.1787 37.8076 52.158 37.7261C52.1394 37.6514 52.1082 37.5796 52.0657 37.5151C51.9536 37.3511 51.802 37.2163 51.6243 37.1226L27.0679 23.3091L23.9282 21.5435L14.2942 16.124C13.9402 15.938 13.5469 15.8335 13.1445 15.8188C12.532 15.7817 11.918 15.7798 11.3052 15.813C10.6091 15.8369 9.92627 16.0059 9.30249 16.3076C8.31201 16.7793 7.42969 17.4419 6.70947 18.2554C5.98901 19.0688 5.44556 20.0161 5.11157 21.04C5.04761 21.3237 5.01514 21.6138 5.01465 21.9043C5.03174 22.5259 5.18774 23.1357 5.47168 23.6924C5.73485 24.2079 6.10165 24.6656 6.55019 25.0391C6.586 25.0689 6.62233 25.0982 6.65918 25.127C6.61907 25.1505 6.57958 25.1749 6.54074 25.2002C6.24408 25.3933 5.9852 25.6372 5.7771 25.9204C5.54175 26.2412 5.37622 26.605 5.29053 26.9902C5.26147 27.1489 5.2478 27.3101 5.24951 27.4712C5.32886 28.4648 5.74756 29.4038 6.43896 30.1382C8.18804 32.0242 10.4559 33.3799 12.9721 34.0445C13.0167 34.0562 13.0613 34.0678 13.106 34.0791C13.0805 34.1175 13.0562 34.1565 13.0331 34.1962C12.9629 34.3166 12.9038 34.443 12.8562 34.5737C12.7415 34.8994 12.7092 35.2476 12.7627 35.5884C12.7969 35.792 12.8552 35.9907 12.936 36.1816C12.9504 36.2305 12.9692 36.2778 12.9917 36.3237C13.5483 37.1455 14.2017 37.9009 14.9385 38.5747C15.1003 38.7085 15.2805 38.8438 15.4607 38.9785L15.593 39.0894C16.5544 39.7876 17.5596 40.4268 18.6025 41.0029C21.322 42.5151 24.4287 43.2383 27.5559 43.0859C29.0107 43.0308 30.4507 42.7798 31.8347 42.3394C34.03 43.1396 36.3372 43.6104 38.6772 43.7349ZM15.677 38.9884L15.6775 38.9888Q16.101 39.2961 16.5351 39.5876Q17.5703 40.2829 18.666 40.8882Q19.5505 41.3801 20.4813 41.7577Q21.6802 42.2441 22.9561 42.541Q24.0447 42.7944 25.1475 42.8998Q26.3403 43.0139 27.5496 42.9551Q28.7319 42.9103 29.8825 42.6955Q30.8501 42.515 31.7952 42.2144L31.8376 42.2012L31.8796 42.2163Q33.4163 42.7765 35.0003 43.116Q36.8114 43.5042 38.6843 43.604L38.6868 43.6045L38.6892 43.6045Q40.0703 43.7323 41.4416 43.6634Q42.7531 43.5974 44.0557 43.3516Q45.5351 43.0723 46.9363 42.5734Q48.0586 42.1738 49.1306 41.6333Q49.7688 41.3249 50.291 40.8804Q50.6916 40.5393 51.0239 40.1182Q51.4395 39.5912 51.703 38.9968Q51.9244 38.4976 52.0385 37.9507Q52.0466 37.9035 52.045 37.8566Q52.0432 37.8072 52.0308 37.7583Q52.0186 37.709 51.9981 37.6634Q51.9803 37.6238 51.9561 37.5869L51.9575 37.5889Q51.8898 37.4901 51.8045 37.41Q51.6976 37.3097 51.563 37.2388L51.5615 37.2378L27.0037 23.4233L23.864 21.6577L14.2332 16.2401L14.2332 16.2402Q13.9931 16.1138 13.7378 16.0421Q13.4487 15.9609 13.1399 15.9497L13.1367 15.9497Q12.6737 15.9217 12.2106 15.9206Q11.7615 15.9196 11.3123 15.9438Q10.752 15.9632 10.2241 16.1038Q9.78046 16.222 9.35962 16.4258Q8.52424 16.8235 7.81793 17.3838Q7.27458 17.8149 6.80762 18.3423Q6.21217 19.0146 5.79392 19.7834Q5.45928 20.3985 5.23807 21.0752Q5.19001 21.2903 5.16697 21.5081Q5.1463 21.7034 5.14576 21.9009L5.14576 21.9012Q5.15767 22.3327 5.25719 22.7431Q5.3683 23.2012 5.58862 23.6328Q5.77254 23.9931 6.01749 24.3056Q6.32921 24.7033 6.73975 25.0234L6.89209 25.1421L6.72534 25.2397Q6.44199 25.406 6.20996 25.6264Q6.03115 25.7962 5.88281 25.998Q5.69478 26.2543 5.57285 26.5389Q5.47451 26.7685 5.41917 27.0164Q5.39476 27.1506 5.38575 27.2857Q5.37985 27.3743 5.38056 27.4632Q5.40726 27.796 5.48461 28.1165Q5.57496 28.4909 5.73438 28.8486Q5.86127 29.1329 6.02586 29.3933Q6.24633 29.7422 6.53442 30.0483Q7.08724 30.6444 7.70351 31.1654Q8.56182 31.8911 9.54321 32.4712Q10.2707 32.9012 11.0397 33.2358Q12.0529 33.6768 13.1382 33.9521L13.3174 33.9976L13.2151 34.1519Q13.1331 34.2752 13.0689 34.4072Q13.0187 34.5103 12.9792 34.6187Q12.8984 34.8484 12.8763 35.0836Q12.8538 35.3229 12.8921 35.5679Q12.9079 35.6618 12.9308 35.7539Q12.9784 35.9459 13.0566 36.1304L13.0596 36.1372L13.0615 36.144Q13.0649 36.1552 13.0686 36.1663Q13.0841 36.2129 13.1055 36.2576Q13.4274 36.7322 13.7898 37.1737Q14.3577 37.8657 15.0249 38.4762Q15.1989 38.619 15.5393 38.873L15.5422 38.8755L15.677 38.9884Z" clip-rule="evenodd" fill="url(#paint_linear_220_14805_1)" fill-opacity="1.000000" fill-rule="evenodd"/>
</svg>
