<svg width="85.000000" height="70.000000" viewBox="0 0 85 70" fill="none" xmlns="http://www.w3.org/2000/svg" xmlns:xlink="http://www.w3.org/1999/xlink">
	<desc>
			Created with Pixso.
	</desc>
	<defs>
		<filter id="filter_220_14834_dd" x="-0.418457" y="13.025879" width="85.311035" height="54.812012" filterUnits="userSpaceOnUse" color-interpolation-filters="sRGB">
			<feFlood flood-opacity="0" result="BackgroundImageFix"/>
			<feColorMatrix in="SourceAlpha" type="matrix" values="0 0 0 0 0 0 0 0 0 0 0 0 0 0 0 0 0 0 127 0" result="hardAlpha"/>
			<feOffset dx="0" dy="5.24444"/>
			<feGaussianBlur stdDeviation="2.18519"/>
			<feComposite in2="hardAlpha" operator="out" k2="-1" k3="1"/>
			<feColorMatrix type="matrix" values="0 0 0 0 0.098039 0 0 0 0 0.21176 0 0 0 0 0.48235 0 0 0 0.5 0"/>
			<feBlend mode="normal" in2="BackgroundImageFix" result="effect_dropShadow_1"/>
			<feBlend mode="normal" in="SourceGraphic" in2="effect_dropShadow_1" result="shape"/>
			<feColorMatrix in="SourceAlpha" type="matrix" values="0 0 0 0 0 0 0 0 0 0 0 0 0 0 0 0 0 0 127 0" result="hardAlpha"/>
			<feOffset dx="0" dy="0"/>
			<feGaussianBlur stdDeviation="1.74815"/>
			<feComposite in2="hardAlpha" operator="arithmetic" k2="-1" k3="1"/>
			<feColorMatrix type="matrix" values="0 0 0 0 1 0 0 0 0 1 0 0 0 0 1 0 0 0 0.25 0"/>
			<feBlend mode="normal" in2="shape" result="effect_innerShadow_2"/>
		</filter>
		<filter id="filter_220_14836_dd" x="6.019775" y="13.975586" width="57.748535" height="31.084961" filterUnits="userSpaceOnUse" color-interpolation-filters="sRGB">
			<feFlood flood-opacity="0" result="BackgroundImageFix"/>
			<feGaussianBlur in="BackgroundImage" stdDeviation="0.437037"/>
			<feComposite in2="SourceAlpha" operator="in" result="effect_backgroundBlur_1"/>
			<feBlend mode="normal" in="SourceGraphic" in2="effect_backgroundBlur_1" result="shape"/>
		</filter>
		<filter id="filter_220_14839_dd" x="6.014893" y="8.288086" width="57.757568" height="34.169434" filterUnits="userSpaceOnUse" color-interpolation-filters="sRGB">
			<feFlood flood-opacity="0" result="BackgroundImageFix"/>
			<feGaussianBlur in="BackgroundImage" stdDeviation="1.31111"/>
			<feComposite in2="SourceAlpha" operator="in" result="effect_backgroundBlur_1"/>
			<feBlend mode="normal" in="SourceGraphic" in2="effect_backgroundBlur_1" result="shape"/>
			<feColorMatrix in="SourceAlpha" type="matrix" values="0 0 0 0 0 0 0 0 0 0 0 0 0 0 0 0 0 0 127 0" result="hardAlpha"/>
			<feOffset dx="0" dy="0"/>
			<feGaussianBlur stdDeviation="0.655556"/>
			<feComposite in2="hardAlpha" operator="arithmetic" k2="-1" k3="1"/>
			<feColorMatrix type="matrix" values="0 0 0 0 1 0 0 0 0 1 0 0 0 0 1 0 0 0 0.5 0"/>
			<feBlend mode="normal" in2="shape" result="effect_innerShadow_2"/>
		</filter>
		<linearGradient id="paint_linear_220_14833_0" x1="74.898880" y1="22.310822" x2="8.216410" y2="43.782890" gradientUnits="userSpaceOnUse">
			<stop stop-color="#00298D"/>
			<stop offset="0.189268" stop-color="#2349A7"/>
			<stop offset="0.646435" stop-color="#3155AD"/>
			<stop offset="1.000000" stop-color="#032C91"/>
		</linearGradient>
		<radialGradient id="paint_radial_220_14834_0" cx="0.000000" cy="0.000000" r="1.000000" gradientUnits="userSpaceOnUse" gradientTransform="translate(42.237 35.1873) rotate(90) scale(28.6214 49.5543)">
			<stop offset="0.052083" stop-color="#062E8D"/>
			<stop offset="1.000000" stop-color="#2968FE"/>
		</radialGradient>
		<linearGradient id="paint_linear_220_14834_1" x1="30.721987" y1="13.138330" x2="50.309967" y2="54.831688" gradientUnits="userSpaceOnUse">
			<stop stop-color="#FFFFFF" stop-opacity="0.000000"/>
			<stop offset="1.000000" stop-color="#FFFFFF" stop-opacity="0.431373"/>
		</linearGradient>
		<linearGradient id="paint_linear_220_14837_0" x1="25.271082" y1="20.070465" x2="16.776457" y2="12.213991" gradientUnits="userSpaceOnUse">
			<stop stop-color="#E9F7FF"/>
			<stop offset="0.579246" stop-color="#D7F0FF" stop-opacity="0.568627"/>
			<stop offset="0.956471" stop-color="#BDE7FF" stop-opacity="0.000000"/>
		</linearGradient>
		<linearGradient id="paint_linear_220_14838_0" x1="63.826279" y1="56.675629" x2="13.005074" y2="8.962875" gradientUnits="userSpaceOnUse">
			<stop stop-color="#E9F7FF"/>
			<stop offset="0.579246" stop-color="#D7F0FF" stop-opacity="0.568627"/>
			<stop offset="0.956471" stop-color="#BDE7FF" stop-opacity="0.000000"/>
		</linearGradient>
		<linearGradient id="paint_linear_220_14839_0" x1="25.327511" y1="4.334839" x2="32.104927" y2="47.067768" gradientUnits="userSpaceOnUse">
			<stop offset="0.095275" stop-color="#2092FB"/>
			<stop offset="0.487412" stop-color="#79CFFF"/>
			<stop offset="1.000000" stop-color="#79CFFF"/>
		</linearGradient>
		<linearGradient id="paint_linear_220_14839_1" x1="62.261246" y1="47.448227" x2="10.621796" y2="10.644531" gradientUnits="userSpaceOnUse">
			<stop stop-color="#E9F7FF"/>
			<stop offset="0.923987" stop-color="#BDE7FF" stop-opacity="0.000000"/>
		</linearGradient>
	</defs>
	<rect id="icon_key_isometric_3d" width="84.000000" height="70.000000" transform="translate(1.000000 0.000000)" fill="#FFFFFF" fill-opacity="0"/>
	<path id="lateral" d="M78.33 35.19C78.33 40.53 74.79 45.86 67.76 49.93C53.66 58.07 30.8 58.07 16.7 49.93C9.18 45.58 5.71 39.79 6.22 34.1C6.18 34.31 6.14 34.51 6.12 34.72C5.44 42.15 7.73 47.25 16.7 52.43C30.8 60.58 53.66 60.57 67.76 52.43C75.83 47.77 78.5 41.85 78.33 35.19Z" fill="url(#paint_linear_220_14833_0)" fill-opacity="1.000000" fill-rule="nonzero"/>
	<g filter="url(#filter_220_14834_dd)">
		<path id="circle" d="M42.23 56.03C62.17 56.03 78.33 46.7 78.33 35.18C78.33 23.67 62.17 14.33 42.23 14.33C22.29 14.33 6.13 23.67 6.13 35.18C6.13 46.7 22.29 56.03 42.23 56.03Z" fill="url(#paint_radial_220_14834_0)" fill-opacity="1.000000" fill-rule="nonzero"/>
	</g>
	<path id="circle" d="M78.33 35.18C78.33 46.7 62.17 56.03 42.23 56.03C22.29 56.03 6.13 46.7 6.13 35.18C6.13 23.67 22.29 14.33 42.23 14.33C62.17 14.33 78.33 23.67 78.33 35.18ZM49.49 55.48Q45.92 55.9 42.23 55.9Q38.55 55.9 34.97 55.48Q31.49 55.07 28.21 54.27Q25 53.48 22.1 52.35Q19.22 51.23 16.77 49.81Q14.32 48.4 12.38 46.74Q10.43 45.07 9.07 43.22Q7.7 41.34 6.99 39.34Q6.44 37.79 6.31 36.19Q6.26 35.69 6.26 35.18Q6.26 34.67 6.31 34.17Q6.44 32.58 6.99 31.02Q7.7 29.02 9.07 27.14Q10.43 25.29 12.38 23.62Q14.32 21.97 16.77 20.55Q19.22 19.14 22.1 18.02Q25 16.88 28.21 16.1Q31.49 15.3 34.97 14.89Q38.55 14.46 42.23 14.46Q45.92 14.46 49.49 14.89Q52.98 15.3 56.25 16.1Q59.47 16.88 62.37 18.02Q65.24 19.14 67.69 20.55Q70.14 21.97 72.08 23.62Q74.03 25.29 75.39 27.14Q76.77 29.02 77.47 31.02Q78.03 32.58 78.16 34.17Q78.2 34.67 78.2 35.18Q78.2 35.69 78.16 36.2Q78.03 37.79 77.47 39.34Q76.77 41.34 75.39 43.22Q74.03 45.07 72.08 46.74Q70.14 48.4 67.69 49.81Q65.24 51.23 62.37 52.35Q59.47 53.48 56.25 54.27Q52.98 55.07 49.49 55.48Z" fill="url(#paint_linear_220_14834_1)" fill-opacity="1.000000" fill-rule="evenodd"/>
	<g filter="url(#filter_220_14836_dd)">
		<path id="2" d="M17.04 17.41C18.1 16.86 19.27 16.57 20.45 16.57C21.63 16.57 22.8 16.86 23.85 17.41C24.17 17.59 24.48 17.85 24.73 18.13C25.06 17.78 25.24 17.31 25.26 16.82C25.22 16.38 25.06 15.97 24.82 15.62C24.57 15.26 24.23 14.98 23.85 14.81C22.79 14.26 21.63 13.97 20.44 13.97C19.26 13.97 18.09 14.26 17.04 14.81C16.65 14.98 16.32 15.26 16.07 15.62C15.82 15.97 15.58 16.26 15.61 16.8C15.63 17.29 15.82 17.8 16.16 18.15C16.4 17.87 16.72 17.6 17.04 17.41Z" fill="url(#paint_linear_220_14837_0)" fill-opacity="1.000000" fill-rule="nonzero"/>
		<path id="1" d="M63.76 39.6C63.72 40.04 63.55 40.41 63.31 40.76C63.06 41.12 62.75 41.41 62.36 41.59C61.31 42.16 60.18 42.43 58.99 42.41L52.76 42.41C51.57 42.43 50.37 42.19 49.32 41.62L30.69 30.6C26.77 31.28 22.77 31.21 18.87 30.42C15.44 29.8 12.21 28.35 9.45 26.18C8.44 25.42 7.61 24.44 7.01 23.32C6.42 22.19 6.08 20.94 6.01 19.66L6.01 19.67C6.01 19.67 6.03 21.49 6.01 22.08C6.05 23.39 6.37 24.68 6.97 25.84C7.57 27 8.42 28.01 9.46 28.78C12.22 30.95 15.44 32.4 18.87 33.02C22.77 33.81 26.77 33.87 30.69 33.2L49.32 44.22C50.37 44.79 51.54 45.08 52.72 45.05L58.95 45.05C60.13 45.08 61.3 44.79 62.35 44.22C62.74 44.04 63.07 43.76 63.32 43.41C63.57 43.05 63.72 42.64 63.76 42.21L63.76 39.6Z" fill="url(#paint_linear_220_14838_0)" fill-opacity="1.000000" fill-rule="nonzero"/>
	</g>
	<g filter="url(#filter_220_14839_dd)">
		<path id="top" d="M51.73 26.79L54.14 26.79C54.73 26.78 55.32 26.92 55.84 27.21C56.04 27.3 56.2 27.43 56.33 27.61C56.45 27.79 56.53 28 56.55 28.21L56.55 31.06L58.95 31.06C60.14 31.04 61.31 31.32 62.36 31.89C62.74 32.07 63.08 32.35 63.33 32.71C63.58 33.06 63.73 33.47 63.77 33.91L63.77 39.6C63.73 40.04 63.58 40.45 63.33 40.8C63.08 41.16 62.75 41.44 62.36 41.62C61.31 42.19 60.14 42.47 58.96 42.45L52.73 42.45C51.54 42.47 50.37 42.19 49.33 41.62L30.7 30.6C26.78 31.28 22.77 31.21 18.87 30.42C15.44 29.8 12.21 28.35 9.45 26.18C8.41 25.41 7.56 24.4 6.96 23.24C6.37 22.08 6.04 20.79 6.01 19.48C6.13 18.15 6.53 16.86 7.19 15.72C7.86 14.57 8.76 13.59 9.84 12.85C12.71 10.75 16.02 9.36 19.5 8.8C23.41 8.09 27.42 8.11 31.33 8.86C34.79 9.45 38.06 10.87 40.87 13.01C41.93 13.76 42.81 14.75 43.44 15.91C44.07 17.06 44.43 18.35 44.51 19.67L44.51 22.52L49.32 22.52C49.91 22.51 50.5 22.65 51.02 22.94C51.22 23.03 51.38 23.17 51.51 23.34C51.63 23.52 51.71 23.73 51.73 23.94L51.73 26.79L51.73 26.79ZM25.26 16.82C25.22 16.38 25.07 15.97 24.82 15.62C24.57 15.26 24.24 14.98 23.85 14.8C22.8 14.26 21.63 13.97 20.45 13.97C19.26 13.97 18.1 14.26 17.04 14.8C16.66 14.98 16.32 15.26 16.07 15.62C15.83 15.97 15.6 16.41 15.63 16.82C15.67 17.25 15.83 17.66 16.07 18.02C16.32 18.37 16.66 18.65 17.04 18.83C18.1 19.38 19.26 19.66 20.45 19.66C21.63 19.66 22.8 19.38 23.85 18.83C24.24 18.65 24.57 18.37 24.82 18.02C25.07 17.66 25.22 17.25 25.26 16.82Z" fill="url(#paint_linear_220_14839_0)" fill-opacity="0.350000" fill-rule="nonzero"/>
	</g>
	<path id="top" d="M55.84 27.21C55.32 26.92 54.73 26.78 54.14 26.79L51.73 26.79L51.73 26.66L51.73 23.94C51.71 23.73 51.63 23.52 51.51 23.34C51.38 23.17 51.22 23.03 51.02 22.94C50.5 22.65 49.91 22.51 49.32 22.52L44.64 22.52L44.51 22.52L44.51 19.67C44.43 18.35 44.07 17.06 43.44 15.91C42.81 14.75 41.93 13.76 40.87 13.01C38.06 10.87 34.79 9.45 31.33 8.86C27.42 8.11 23.41 8.09 19.5 8.8C16.02 9.36 12.71 10.75 9.84 12.85C8.76 13.59 7.86 14.57 7.19 15.72C6.53 16.86 6.13 18.15 6.01 19.48C6.04 20.79 6.37 22.08 6.96 23.24C7.56 24.4 8.41 25.41 9.45 26.18C12.21 28.35 15.44 29.8 18.87 30.42C22.77 31.21 26.78 31.28 30.7 30.6L49.33 41.62C50.37 42.19 51.54 42.47 52.73 42.45L58.96 42.45C60.14 42.47 61.31 42.19 62.36 41.62C62.75 41.44 63.08 41.16 63.33 40.8C63.58 40.45 63.73 40.04 63.77 39.6L63.77 33.91C63.73 33.47 63.58 33.06 63.33 32.71C63.08 32.35 62.74 32.07 62.36 31.89C61.31 31.32 60.14 31.04 58.95 31.06L56.55 31.06L56.55 28.21C56.53 28 56.45 27.79 56.33 27.61C56.2 27.43 56.04 27.3 55.84 27.21ZM56.42 28.22Q56.4 28.06 56.35 27.92Q56.3 27.8 56.22 27.69Q56.13 27.56 56.01 27.46Q55.91 27.38 55.79 27.33L55.78 27.32L55.78 27.32Q55.38 27.1 54.95 27Q54.56 26.91 54.14 26.92L54.14 26.92L51.59 26.92L51.59 23.95Q51.58 23.8 51.53 23.66Q51.48 23.53 51.4 23.42Q51.31 23.29 51.19 23.19Q51.09 23.11 50.97 23.06L50.96 23.06L50.96 23.05Q50.57 22.84 50.15 22.74Q49.75 22.64 49.32 22.65L44.37 22.65L44.37 19.67Q44.35 19.15 44.26 18.64Q44.18 18.2 44.05 17.76Q43.9 17.22 43.68 16.7Q43.52 16.33 43.32 15.97Q43.04 15.46 42.7 14.99Q42.47 14.68 42.22 14.39Q41.83 13.96 41.39 13.58Q41.1 13.33 40.79 13.11L40.79 13.11L40.79 13.11Q39.56 12.18 38.22 11.43Q37.28 10.9 36.29 10.47Q34.96 9.9 33.57 9.5Q32.46 9.19 31.31 8.99L31.31 8.99L31.3 8.99Q29.77 8.7 28.23 8.55Q26.83 8.42 25.42 8.41Q24.08 8.41 22.76 8.51Q21.13 8.64 19.52 8.93Q18.36 9.12 17.23 9.42Q15.84 9.8 14.49 10.37Q13.49 10.79 12.53 11.3Q11.18 12.03 9.92 12.96L9.92 12.96L9.92 12.96Q9.6 13.17 9.31 13.41Q8.86 13.79 8.46 14.22Q8.2 14.5 7.96 14.8Q7.6 15.27 7.31 15.78Q7.1 16.14 6.93 16.5Q6.69 17.02 6.52 17.57Q6.39 18 6.3 18.43Q6.19 18.95 6.14 19.48Q6.15 19.99 6.23 20.49Q6.29 20.94 6.4 21.38Q6.54 21.92 6.74 22.43Q6.89 22.81 7.08 23.18Q7.35 23.7 7.68 24.17Q7.9 24.48 8.14 24.77Q8.52 25.21 8.95 25.6Q9.23 25.85 9.53 26.07L9.53 26.07L9.53 26.07Q10.74 27.03 12.06 27.79Q12.99 28.32 13.96 28.76Q15.29 29.36 16.66 29.76Q17.76 30.09 18.89 30.29L18.89 30.29L18.9 30.29Q20.44 30.6 22 30.77Q23.38 30.91 24.78 30.93Q26.21 30.95 27.63 30.85Q29.16 30.73 30.67 30.47L30.72 30.46L49.39 41.5Q49.82 41.74 50.28 41.91Q50.64 42.04 51.01 42.13Q51.41 42.23 51.82 42.28Q52.27 42.33 52.73 42.32L58.96 42.32Q59.38 42.33 59.79 42.28Q60.24 42.24 60.68 42.13Q61.05 42.04 61.41 41.91Q61.86 41.74 62.3 41.5L62.3 41.5L62.3 41.5Q62.56 41.38 62.77 41.21Q63.02 41.01 63.22 40.73Q63.39 40.49 63.49 40.23Q63.6 39.93 63.64 39.6L63.64 33.91Q63.6 33.58 63.49 33.29Q63.39 33.02 63.22 32.78Q63.02 32.5 62.77 32.3Q62.56 32.13 62.3 32.01L62.3 32.01L62.29 32.01Q61.86 31.77 61.4 31.6Q61.05 31.47 60.68 31.38Q60.27 31.28 59.86 31.24Q59.41 31.18 58.95 31.19L56.42 31.19L56.42 28.22ZM25.23 16.1Q25.12 15.81 24.93 15.54Q24.71 15.23 24.43 15.01Q24.19 14.82 23.91 14.69Q23.45 14.45 22.98 14.28Q22.61 14.15 22.23 14.05Q21.77 13.94 21.3 13.89Q20.88 13.84 20.45 13.84Q20.02 13.84 19.59 13.89Q19.12 13.94 18.67 14.05Q18.28 14.15 17.91 14.28Q17.44 14.45 16.99 14.69Q16.7 14.82 16.46 15.01Q16.18 15.23 15.97 15.54Q15.45 16.28 15.5 16.83Q15.54 17.2 15.66 17.53Q15.78 17.83 15.97 18.09Q16.18 18.4 16.46 18.63Q16.7 18.82 16.99 18.95Q17.44 19.18 17.92 19.36Q18.28 19.49 18.67 19.58Q19.13 19.69 19.59 19.75Q20.02 19.8 20.45 19.8Q20.88 19.8 21.3 19.75Q21.77 19.69 22.23 19.58Q22.61 19.49 22.98 19.36Q23.45 19.18 23.91 18.95Q24.19 18.82 24.43 18.63Q24.71 18.4 24.93 18.09Q25.12 17.83 25.23 17.53Q25.36 17.2 25.39 16.83L25.39 16.82L25.39 16.8Q25.36 16.44 25.23 16.1ZM23.85 18.83C24.24 18.65 24.57 18.37 24.82 18.02C25.07 17.66 25.22 17.25 25.26 16.82C25.22 16.38 25.07 15.97 24.82 15.62C24.57 15.26 24.24 14.98 23.85 14.8C22.8 14.26 21.63 13.97 20.45 13.97C19.26 13.97 18.1 14.26 17.04 14.8C16.66 14.98 16.32 15.26 16.07 15.62C15.83 15.97 15.6 16.41 15.63 16.82C15.67 17.25 15.83 17.66 16.07 18.02C16.32 18.37 16.66 18.65 17.04 18.83C18.1 19.38 19.26 19.66 20.45 19.66C21.63 19.66 22.8 19.38 23.85 18.83Z" fill="url(#paint_linear_220_14839_1)" fill-opacity="1.000000" fill-rule="evenodd"/>
</svg>
