<svg width="25.000000" height="25.000000" viewBox="0 0 25 25" fill="none" xmlns="http://www.w3.org/2000/svg" xmlns:xlink="http://www.w3.org/1999/xlink">
	<desc>
			Created with Pixso.
	</desc>
	<defs>
		<clipPath id="clip82_2171">
			<rect id="fluent:checkmark-12-filled" width="25.000000" height="25.000000" fill="white" fill-opacity="0"/>
		</clipPath>
	</defs>
	<rect id="fluent:checkmark-12-filled" width="25.000000" height="25.000000" fill="#FFFFFF" fill-opacity="0"/>
	<g clip-path="url(#clip82_2171)">
		<path id="Vector" d="M20.5 6.4C20.8 6.68 20.98 7.05 20.99 7.45C21.01 7.85 20.85 8.24 20.56 8.52L11.51 17.53C11.36 17.67 11.18 17.79 10.99 17.87C10.79 17.95 10.58 17.99 10.37 17.99C10.15 18 9.94 17.96 9.74 17.88C9.55 17.81 9.37 17.7 9.22 17.56L4.42 13.06C4.14 12.77 3.99 12.39 4 12.01C4 11.62 4.17 11.25 4.46 10.97C4.76 10.7 5.15 10.54 5.56 10.53C5.98 10.53 6.38 10.67 6.68 10.94L10.31 14.34L18.24 6.46C18.53 6.18 18.93 6.01 19.35 6C19.78 5.98 20.19 6.13 20.5 6.4Z" fill="#FFFFFF" fill-opacity="1.000000" fill-rule="nonzero"/>
	</g>
</svg>
